<?xml version="1.0" encoding="UTF-8"?><svg version="1.1" width="596px" height="523px" viewBox="0 0 596.0 523.0" xmlns="http://www.w3.org/2000/svg" xmlns:xlink="http://www.w3.org/1999/xlink"><defs><clipPath id="i0"><path d="M127.5,0 C197.916306,0 255,57.0836944 255,127.5 C255,197.916306 197.916306,255 127.5,255 C57.0836944,255 0,197.916306 0,127.5 C0,57.0836944 57.0836944,0 127.5,0 Z"></path></clipPath><clipPath id="i1"><path d="M166.502849,0 C258.459833,0 333.005698,74.5458647 333.005698,166.502849 C333.005698,258.459833 258.459833,333.005698 166.502849,333.005698 C74.5458647,333.005698 0,258.459833 0,166.502849 C0,74.5458647 74.5458647,0 166.502849,0 Z"></path></clipPath><clipPath id="i2"><path d="M207.95584,0 C322.80668,0 415.911681,93.1050011 415.911681,207.95584 C415.911681,322.80668 322.80668,415.911681 207.95584,415.911681 C93.1050011,415.911681 0,322.80668 0,207.95584 C0,93.1050011 93.1050011,0 207.95584,0 Z"></path></clipPath><clipPath id="i3"><path d="M242.5,0 C376.429052,0 485,108.570948 485,242.5 C485,376.429052 376.429052,485 242.5,485 C108.570948,485 0,376.429052 0,242.5 C0,108.570948 108.570948,0 242.5,0 Z"></path></clipPath><clipPath id="i4"><path d="M63.5,0 C98.5691862,0 127,34.9254497 127,78.0067414 C127,89.8006511 124.855351,100.977671 121.041432,111 L5.95614904,111 C2.14222988,100.977671 0,89.8006511 0,78.0067414 C0,34.9254497 28.4296042,0 63.5,0 Z"></path></clipPath><clipPath id="i5"><path d="M58.0887687,0 C65.6461786,0 71.5879414,6.48032404 70.953525,14.0304043 L65.1555633,83 L5.84427576,83 L0.0463140316,14.0304043 C-0.58689396,6.48032404 5.35366041,0 12.9110703,0 Z"></path></clipPath><clipPath id="i6"><path d="M24.707498,0.390934187 C25.958737,-1.17479182 28.1835307,2.22266226 30.077092,5.96354993 L30.3331293,6.47536584 C32.0670131,9.98139137 33.4617961,13.6032853 33.4617961,13.6032853 L34,76 L33.9765949,75.9928997 C33.4953785,75.8468305 25.6710757,73.4678123 17.6812645,70.785604 L16.9077812,70.5251538 C16.3921025,70.3509756 15.8766986,70.1757947 15.363497,70.000129 L14.5955871,69.7363318 C11.0219646,68.5041865 7.60347596,67.2609891 5.001236,66.1844865 C1.38290591,64.6869168 0.907734929,64.2985681 0.153764641,62.4102225 C-1.95662486,57.1274665 18.2442029,8.47950957 24.707498,0.390934187 Z"></path></clipPath><clipPath id="i7"><path d="M9.29221497,0.390934187 C15.7565226,8.47950957 35.9555143,57.1274665 33.8464021,62.4102225 C33.091243,64.2985681 32.6172988,64.6869168 28.9978683,66.1844865 C26.6745116,67.1456495 23.7004664,68.2397006 20.5462869,69.3401231 L19.7860661,69.604282 L19.0203737,69.868297 C17.8684542,70.2640171 16.7029467,70.6579394 15.5458054,71.0441613 L14.7758582,71.300437 L14.0098354,71.5540423 C6.62857403,73.9914022 0,76 0,76 L0.539399382,13.6032853 C0.539399382,13.6032853 1.93413931,9.98139137 3.66784275,6.47536584 L3.92385263,5.96354993 L4.18396666,5.45599147 C6.01741379,1.9240573 8.09847252,-1.10362246 9.29221497,0.390934187 Z"></path></clipPath><clipPath id="i8"><path d="M3.0840278,6.99935497 C3.6015539,6.61307327 16.6899497,-3.00438882 31.714275,0.953655708 C46.5852909,4.87012808 48.8706746,14.6768541 48.9944137,15.2617329 L48.9994021,15.2860172 L24.6780399,48 L0,15.28909 L3.06813996,7.01127685 Z"></path></clipPath><clipPath id="i9"><path d="M146,0 L146,124 L0,124 L0,0 L146,0 Z"></path></clipPath><clipPath id="i10"><path d="M74,0 L74,48 L0,48 L0,0 L74,0 Z"></path></clipPath><clipPath id="i11"><path d="M31.2839934,7.09943108 C37.7483968,15.7070561 31.5855435,34.1836311 24.1566682,41.6744324 C16.7277928,49.1652336 10.8457351,42.8341167 4.38011085,34.2252671 C-2.08429257,25.6176421 -1.30294824,12.5659893 6.12592707,5.07518807 C13.5548024,-2.4156132 24.8183691,-1.50941851 31.2839934,7.09943108 Z"></path></clipPath><clipPath id="i12"><path d="M146,0 L146,5 L0,5 L0,0 L146,0 Z"></path></clipPath><clipPath id="i13"><path d="M3.99942734,0 C6.20987831,0 8,1.79101059 8,4 C8,6.21013455 6.20987831,8 3.99942734,8 C1.79012169,8 0,6.21013455 0,4 C0,1.79101059 1.79012169,0 3.99942734,0 Z"></path></clipPath><clipPath id="i14"><path d="M3.92474181,0 C3.92474181,0 7.99199623,5.52197321 11.7462639,10.8485109 L12.1543682,11.4285375 C12.7640303,12.2965898 13.3610466,13.1538419 13.9262242,13.975242 C21.7645896,25.3659067 24.744698,36.9682614 24.9841308,37.93507 L24.9990169,37.9958972 L0,5.25507218 Z"></path></clipPath><clipPath id="i15"><path d="M21.0752582,0 L25,5.25507218 L0,38 L0.0158692298,37.93507 C0.255301969,36.9682614 3.23541039,25.3659067 11.0737758,13.975242 C11.6389534,13.1538419 12.2359697,12.2965898 12.8456318,11.4285375 L13.2537361,10.8485109 C17.0080038,5.52197321 21.0752582,0 21.0752582,0 Z"></path></clipPath><clipPath id="i16"><path d="M24.5931847,0 C30.192232,0 34.5769987,2.43955854 39.6259769,7.04466287 C48.286201,14.943642 48.9759487,29.9321444 48.9993377,33.974105 L48.9990115,34.4652418 C48.9963608,34.8122952 48.9892937,35 48.9892937,35 C48.9892937,35 42.5596786,30.7751336 39.3989065,29.8082428 C30.2335175,27.0053457 18.598282,27.0053457 9.43289301,29.8082428 C6.27090666,30.7751336 0.0197907965,35 0.0197907965,35 C0.0197907965,35 0.0048307397,34.6827789 0.000924092211,34.1106351 L0.000305111527,33.6745739 C0.0169775515,29.238839 0.745784805,14.7599448 9.20460828,7.04466287 C14.2535865,2.43955854 18.3420688,0 24.5931847,0 Z"></path></clipPath><clipPath id="i17"><path d="M51.5,0 C79.9426646,0 103,23.0573354 103,51.5 C103,79.9426646 79.9426646,103 51.5,103 C23.0573354,103 0,79.9426646 0,51.5 C0,23.0573354 23.0573354,0 51.5,0 Z"></path></clipPath><clipPath id="i18"><path d="M43,0 C66.7482442,0 86,19.2517558 86,43 C86,66.7482442 66.7482442,86 43,86 C19.2517558,86 0,66.7482442 0,43 C0,19.2517558 19.2517558,0 43,0 Z"></path></clipPath><clipPath id="i19"><path d="M33.5,0 C52.0015391,0 67,14.9984609 67,33.5 C67,52.0015391 52.0015391,67 33.5,67 C14.9984609,67 0,52.0015391 0,33.5 C0,14.9984609 14.9984609,0 33.5,0 Z"></path></clipPath><clipPath id="i20"><path d="M134,0 L134,20 L0,20 L0,0 L134,0 Z"></path></clipPath><clipPath id="i21"><path d="M125,0 L125,20 L0,20 L0,0 L125,0 Z"></path></clipPath><clipPath id="i22"><path d="M131,0 L131,20 L0,20 L0,0 L131,0 Z"></path></clipPath><clipPath id="i23"><path d="M2.10795455,0 L2.10795455,4.92613636 L7.5,4.92613636 L7.5,0 L9.61363636,0 L9.61363636,11.6363636 L7.5,11.6363636 L7.5,6.69318182 L2.10795455,6.69318182 L2.10795455,11.6363636 L0,11.6363636 L0,0 L2.10795455,0 Z"></path></clipPath><clipPath id="i24"><path d="M6.69886364,0 L10.8011364,11.6363636 L8.55113636,11.6363636 L7.587,8.767 L3.211,8.767 L2.25,11.6363636 L0,11.6363636 L4.09659091,0 L6.69886364,0 Z M5.44318182,2.38636364 L5.35227273,2.38636364 L3.78,7.073 L7.018,7.073 L5.44318182,2.38636364 Z"></path></clipPath><clipPath id="i25"><path d="M5.32954545,0 C5.97727273,0 6.57954545,0.0909090909 7.13636364,0.272727273 C7.69318182,0.454545455 8.18939394,0.720643939 8.625,1.07102273 C9.06060606,1.42140152 9.41950758,1.84943182 9.70170455,2.35511364 C9.98390152,2.86079545 10.1685606,3.4375 10.2556818,4.08522727 L8.13068182,4.08522727 C8.07007576,3.73674242 7.95833333,3.42708333 7.79545455,3.15625 C7.63257576,2.88541667 7.42992424,2.65530303 7.1875,2.46590909 C6.94507576,2.27651515 6.66950758,2.13352273 6.36079545,2.03693182 C6.05208333,1.94034091 5.71969697,1.89204545 5.36363636,1.89204545 C4.73106061,1.89204545 4.17045455,2.05018939 3.68181818,2.36647727 C3.19318182,2.68276515 2.81060606,3.14488636 2.53409091,3.75284091 C2.25757576,4.36079545 2.11931818,5.10227273 2.11931818,5.97727273 C2.11931818,6.86742424 2.25852273,7.61647727 2.53693182,8.22443182 C2.81534091,8.83238636 3.19791667,9.2907197 3.68465909,9.59943182 C4.17140152,9.90814394 4.72916667,10.0625 5.35795455,10.0625 C5.70643939,10.0625 6.03314394,10.0160985 6.33806818,9.92329545 C6.64299242,9.83049242 6.91761364,9.69318182 7.16193182,9.51136364 C7.40625,9.32954545 7.61268939,9.10606061 7.78125,8.84090909 C7.94981061,8.57575758 8.06628788,8.27272727 8.13068182,7.93181818 L10.2556818,7.94318182 C10.1761364,8.49621212 10.0047348,9.01515152 9.74147727,9.5 C9.4782197,9.98484848 9.1344697,10.4119318 8.71022727,10.78125 C8.28598485,11.1505682 7.78977273,11.438447 7.22159091,11.6448864 C6.65340909,11.8513258 6.02272727,11.9545455 5.32954545,11.9545455 C4.30681818,11.9545455 3.39393939,11.717803 2.59090909,11.2443182 C1.78787879,10.7708333 1.15530303,10.0871212 0.693181818,9.19318182 C0.231060606,8.29924242 0,7.22727273 0,5.97727273 C0,4.72348485 0.232954545,3.65056818 0.698863636,2.75852273 C1.16477273,1.86647727 1.79924242,1.18371212 2.60227273,0.710227273 C3.40530303,0.236742424 4.31439394,0 5.32954545,0 Z"></path></clipPath><clipPath id="i26"><path d="M2.10795455,0 L2.10795455,5.34659091 L2.25,5.34659091 L6.78977273,0 L9.36363636,0 L4.86363636,5.22159091 L9.40340909,11.6363636 L6.86931818,11.6363636 L3.39772727,6.64772727 L2.10795455,8.17045455 L2.10795455,11.6363636 L0,11.6363636 L0,0 L2.10795455,0 Z"></path></clipPath><clipPath id="i27"><path d="M7.56818182,0 L7.56818182,1.76704545 L2.10795455,1.76704545 L2.10795455,4.92613636 L7.17613636,4.92613636 L7.17613636,6.69318182 L2.10795455,6.69318182 L2.10795455,9.86931818 L7.61363636,9.86931818 L7.61363636,11.6363636 L0,11.6363636 L0,0 L7.56818182,0 Z"></path></clipPath><clipPath id="i28"><path d="M4.36363636,0 C5.25757576,0 6.00852273,0.15530303 6.61647727,0.465909091 C7.22443182,0.776515152 7.68465909,1.21117424 7.99715909,1.76988636 C8.30965909,2.32859848 8.46590909,2.97916667 8.46590909,3.72159091 C8.46590909,4.46780303 8.30776515,5.11458333 7.99147727,5.66193182 C7.67518939,6.2092803 7.21022727,6.63162879 6.59659091,6.92897727 L6.38685466,7.02258698 L6.374,7.027 L8.89204545,11.6363636 L6.53977273,11.6363636 L4.253,7.375 L2.107,7.375 L2.10795455,11.6363636 L0,11.6363636 L0,0 L4.36363636,0 Z M4.03977273,1.76136364 L2.10795455,1.76136364 L2.107,5.625 L4.05113636,5.625 C4.57386364,5.625 5.00189394,5.55208333 5.33522727,5.40625 C5.66856061,5.26041667 5.9157197,5.04640152 6.07670455,4.76420455 C6.23768939,4.48200758 6.31818182,4.1344697 6.31818182,3.72159091 C6.31818182,3.30871212 6.23674242,2.95549242 6.07386364,2.66193182 C5.91098485,2.36837121 5.66287879,2.14488636 5.32954545,1.99147727 C4.99621212,1.83806818 4.56628788,1.76136364 4.03977273,1.76136364 Z"></path></clipPath><clipPath id="i29"><path d="M40,0 L40,49 L0,49 L0,0 L40,0 Z"></path></clipPath><clipPath id="i30"><path d="M36.8872986,4.69638088 C37.5833659,6.795332 37.5833659,16.6112035 36.8872986,34.1439955 L18.6685306,47.1276005 L0,34.7097761 L0,5.53012895 C0.345981708,4.97693595 0.598369133,4.69901993 0.757162274,4.69638088 C9.6920434,0.720391857 22.7247998,-3.50437837 36.8872986,4.69638088 Z"></path></clipPath><clipPath id="i31"><path d="M2.29274329,3.39168827 C13.7127884,-1.13080865 26.2915787,-1.13080865 37.7116238,3.3931638 L38.443846,3.68236752 C38.6112526,3.74876634 38.7626465,3.84762679 38.8951161,3.97009571 C39.5312614,4.13240392 40.0014557,4.71523795 40.0014557,5.41021219 L40.0014557,34.3910807 C40.0014557,35.4814968 39.4657544,36.4937098 38.569037,37.0972012 L21.6333066,48.4986152 C21.1383652,48.8335603 20.5691826,49.0002951 20.0014557,49.0002951 C19.4322731,49.0002951 18.8630905,48.8335603 18.3681491,48.4986152 L1.37710168,37.0588375 C0.515321348,36.48043 0,35.5080563 0,34.4589551 L0,6.60981741 C0,5.20658916 0.834121843,3.97157124 2.12242521,3.45956262 Z M20.0014557,3.01985492 C14.2790596,3.01985492 8.55811922,4.09846675 3.11376374,6.25569041 C3.00312978,6.29995628 2.93179999,6.40619438 2.93179999,6.52718777 L2.93179999,34.3851786 C2.93179999,34.481088 2.97838271,34.5725708 3.05844676,34.6256899 L19.8413276,45.9252923 C19.9388602,45.9902156 20.0625955,45.9902156 20.1586724,45.9252923 L36.9415532,34.6256899 C37.0216173,34.5725708 37.0696557,34.481088 37.0696557,34.3851786 L37.0696557,6.32799134 L36.8891477,6.25569041 C31.4433365,4.09846675 25.7223961,3.01985492 20.0014557,3.01985492 Z"></path></clipPath><clipPath id="i32"><path d="M16.7278481,7.7554506 C17.4289192,7.7554506 18,8.3357702 18,9.0514977 L18,21.7039529 C18,22.4167044 17.4289192,23 16.7278481,23 L1.2721519,23 C0.572541383,23 0,22.4167044 0,21.7039529 L0,9.0514977 C0,8.3357702 0.572541383,7.7554506 1.2721519,7.7554506 L2.48588121,7.7554506 L2.48588121,6.41178754 C2.48588121,2.876302 5.38072055,0 8.93719572,0 C11.7195716,0 13.965767,1.90032993 15.0613437,4.38959695 C15.3320351,5.00463652 15.5066789,6.12658774 15.5852753,7.7554506 Z M9,12.1554635 C8.29892892,12.1554635 7.7278481,12.7372711 7.7278481,13.4515106 L7.7278481,17.302452 C7.7278481,18.0166915 8.29892892,18.5999871 9,18.5999871 C9.70253165,18.5999871 10.2721519,18.0166915 10.2721519,17.302452 L10.2721519,13.4515106 C10.2721519,12.7372711 9.70253165,12.1554635 9,12.1554635 Z M12.9644906,7.7554506 C12.9644906,6.51129299 12.8698681,5.69686156 12.6806232,5.3121563 C11.9639158,3.85520276 10.647517,2.5920942 8.93719572,2.5920942 C6.78432327,2.5920942 5.030185,4.306269 5.030185,6.41178754 L5.030185,7.7554506 Z"></path></clipPath><clipPath id="i33"><path d="M29.5072566,0 C37.3597717,0 43.7283776,6.38488407 43.7283776,14.2653835 C43.7283776,14.8039908 43.6902289,15.3342375 43.635043,15.8574242 C43.90338,15.8355009 44.1720874,15.8206376 44.4435726,15.8206376 C49.723645,15.8206376 54,20.1120318 54,25.4081822 C54,30.6783219 49.764016,34.9572681 44.5180181,34.9988853 L12.187945,35 C5.45618596,35 0,29.5227036 0,22.7744129 C0,16.02092 5.45618596,10.5458532 12.187945,10.5458532 C13.3924059,10.5458532 14.5563108,10.7256986 15.6598444,11.0517613 C17.1081976,4.72372919 22.7566085,0 29.5072566,0 Z"></path></clipPath><clipPath id="i34"><path d="M58.9598903,0 C75.2106703,0 88.8056886,11.3351981 92.3052891,26.5302961 C94.9520581,25.7441086 97.7544547,25.3165973 100.662193,25.3165973 C116.863789,25.3165973 130,38.4512342 130,54.6557288 C130,57.1971172 129.639377,59.6491119 129.034669,62.0018006 C128.469969,61.7793259 127.903249,61.5652949 127.30992,61.4245044 C126.27228,52.4252911 118.606157,45.4140327 109.332188,45.4140327 C102.145794,45.4140327 95.8426954,49.5602864 92.9309191,55.8530908 C92.6763727,55.8415265 92.4198075,55.8330828 92.1685645,55.8330828 C83.299631,55.8330828 76.0846069,63.050479 76.0846069,71.9212003 C76.0846069,76.7332261 78.2226501,81.0492728 81.5822225,84 L22.8276945,84 C10.2035129,83.8979406 0,73.6351002 0,60.9848782 C0,48.2738978 10.3002295,37.9717755 23.0073635,37.9717755 C23.6614396,37.9717755 24.310377,38.0073861 24.9528911,38.0598843 C24.8108442,36.802131 24.7350492,35.5263889 24.7350492,34.2326579 C24.7350492,15.3272613 40.0566521,0 58.9598903,0 Z"></path></clipPath><clipPath id="i35"><path d="M1.36537751,0 L1.75738238,0.0582812105 C13.0320245,3.62697133 22.0696012,12.6302903 25.9261651,24.1391374 C26.0689604,24.5666582 26.0022013,25.03742 25.7469889,25.4096677 C25.4905031,25.7775914 25.0766697,26 24.6390067,26 L19.5587691,26 C19.0188756,26 18.5351907,25.6655411 18.3278193,25.1453342 C15.1508517,17.0884269 8.7980081,10.787476 0.885876431,7.85912723 C0.358534383,7.6605951 0,7.13888427 0,6.56058426 L0,1.40927727 C0,0.632445135 0.613928738,0 1.36537751,0 Z"></path></clipPath><clipPath id="i36"><path d="M1.37628605,0 L1.67389116,0.0285472127 C19.8028499,4.16470027 34.4396272,18.775051 38.9592985,37.2535491 C39.0611301,37.6697375 38.9697569,38.1122192 38.7090313,38.4544102 C38.4472049,38.798667 38.0529056,39 37.6272312,39 L32.6606018,39 C32.0604376,39 31.5285281,38.582497 31.3676158,37.9884521 C27.2871965,23.1005172 15.6627994,11.5400229 1.02528815,7.80916516 C0.420720425,7.65253111 0,7.10299726 0,6.47251705 L0,1.40332088 C0,0.626911816 0.617227872,0 1.37628605,0 Z"></path></clipPath><clipPath id="i37"><path d="M5.5,0 C8.53756612,0 11,2.46243388 11,5.5 C11,8.53756612 8.53756612,11 5.5,11 C2.46243388,11 0,8.53756612 0,5.5 C0,2.46243388 2.46243388,0 5.5,0 Z"></path></clipPath><clipPath id="i38"><path d="M8.5,0 C13.1944204,-8.62351033e-16 17,3.80557963 17,8.5 L17,33.5 C17,38.1944204 13.1944204,42 8.5,42 C3.80557963,42 5.74900688e-16,38.1944204 0,33.5 L0,8.5 C-5.74900688e-16,3.80557963 3.80557963,8.62351033e-16 8.5,0 Z"></path></clipPath><clipPath id="i39"><path d="M8.4,0 C13.0391919,-8.52205726e-16 16.8,3.7608081 16.8,8.4 L16.8,33.6 C16.8,38.2391919 13.0391919,42 8.4,42 C3.7608081,42 2.34449399e-15,38.2391919 0,33.6 L0,8.4 C-5.68137151e-16,3.7608081 3.7608081,8.52205726e-16 8.4,0 Z"></path></clipPath><clipPath id="i40"><path d="M8.4,0 C13.0391919,-8.52205726e-16 16.8,3.7608081 16.8,8.4 L16.8,33.6 C16.8,38.2391919 13.0391919,42 8.4,42 C3.7608081,42 1.1358536e-15,38.2391919 0,33.6 L0,8.4 C-5.68137151e-16,3.7608081 3.7608081,8.52205726e-16 8.4,0 Z"></path></clipPath><clipPath id="i41"><path d="M3.5,0 C5.43299662,0 7,1.56700338 7,3.5 C7,5.43299662 5.43299662,7 3.5,7 C1.56700338,7 0,5.43299662 0,3.5 C0,1.56700338 1.56700338,0 3.5,0 Z"></path></clipPath><clipPath id="i42"><path d="M8.5,0 C13.1944204,0 17,3.80557963 17,8.5 C17,13.1944204 13.1944204,17 8.5,17 C3.80557963,17 0,13.1944204 0,8.5 C0,3.80557963 3.80557963,0 8.5,0 Z"></path></clipPath><clipPath id="i43"><path d="M3.77130682,0 C4.85440341,0 5.78568892,0.217507102 6.56516335,0.652521307 C7.34463778,1.08753551 7.94389205,1.71164773 8.36292614,2.52485795 C8.78196023,3.33806818 8.99147727,4.31107955 8.99147727,5.44389205 C8.99147727,6.58025568 8.78107244,7.55681818 8.36026278,8.37357955 C7.93945313,9.19034091 7.33398438,9.81711648 6.54385653,10.2539062 C5.75372869,10.690696 4.8046875,10.9090909 3.69673295,10.9090909 L0,10.9090909 L0,0 L3.77130682,0 Z M3.65944602,1.70987216 L1.97620739,1.70987216 L1.97620739,9.19921875 L3.60085227,9.19921875 C4.36079545,9.19921875 4.9946733,9.05983665 5.5024858,8.78107244 C6.0102983,8.50230824 6.39204545,8.08504972 6.64772727,7.52929688 C6.90340909,6.97354403 7.03125,6.27840909 7.03125,5.44389205 C7.03125,4.609375 6.90340909,3.91601562 6.64772727,3.36381392 C6.39204545,2.81161222 6.01473722,2.39790483 5.51580256,2.12269176 C5.0168679,1.84747869 4.39808239,1.70987216 3.65944602,1.70987216 Z"></path></clipPath><clipPath id="i44"><path d="M6.28018466,0 L10.1260653,10.9090909 L8.01669034,10.9090909 L7.112,8.219 L3.011,8.219 L2.109375,10.9090909 L0,10.9090909 L3.84055398,0 L6.28018466,0 Z M5.10298295,2.23721591 L5.01775568,2.23721591 L3.544,6.631 L6.578,6.631 L5.10298295,2.23721591 Z"></path></clipPath><clipPath id="i45"><path d="M8.70383523,0 L8.70383523,1.65660511 L5.33203125,1.65660511 L5.33203125,10.9090909 L3.37180398,10.9090909 L3.37180398,1.65660511 L0,1.65660511 L0,0 L8.70383523,0 Z"></path></clipPath><clipPath id="i46"><path d="M6.28018466,0 L10.1260653,10.9090909 L8.01669034,10.9090909 L7.112,8.219 L3.011,8.219 L2.109375,10.9090909 L0,10.9090909 L3.84055398,0 L6.28018466,0 Z M5.10298295,2.23721591 L5.01775568,2.23721591 L3.544,6.631 L6.578,6.631 L5.10298295,2.23721591 Z"></path></clipPath><clipPath id="i47"><path d="M4.99644886,0 C5.60369318,0 6.16832386,0.0852272727 6.69034091,0.255681818 C7.21235795,0.426136364 7.67755682,0.675603693 8.0859375,1.00408381 C8.49431818,1.33256392 8.83078835,1.73384233 9.09534801,2.20791903 C9.35990767,2.68199574 9.53302557,3.22265625 9.6147017,3.82990057 L7.6225142,3.82990057 C7.56569602,3.50319602 7.4609375,3.21289062 7.30823864,2.95898438 C7.15553977,2.70507812 6.96555398,2.48934659 6.73828125,2.31178977 C6.51100852,2.13423295 6.25266335,2.00017756 5.96324574,1.90962358 C5.67382813,1.8190696 5.36221591,1.77379261 5.02840909,1.77379261 C4.43536932,1.77379261 3.90980114,1.92205256 3.45170455,2.21857244 C2.99360795,2.51509233 2.63494318,2.94833097 2.37571023,3.51828835 C2.11647727,4.08824574 1.9868608,4.78338068 1.9868608,5.60369318 C1.9868608,6.43821023 2.11736506,7.14044744 2.37837358,7.71040483 C2.6393821,8.28036222 2.99804687,8.71004972 3.4543679,8.99946733 C3.91068892,9.28888494 4.43359375,9.43359375 5.02308239,9.43359375 C5.34978693,9.43359375 5.65607244,9.39009233 5.94193892,9.30308949 C6.2278054,9.21608665 6.48526278,9.08735795 6.71431108,8.91690341 C6.94335938,8.74644886 7.13689631,8.53693182 7.29492188,8.28835227 C7.45294744,8.03977273 7.56214489,7.75568182 7.6225142,7.43607955 L9.6147017,7.44673295 C9.54012784,7.96519886 9.37943892,8.45170455 9.13263494,8.90625 C8.88583097,9.36079545 8.56356534,9.76118608 8.16583807,10.1074219 C7.7681108,10.4536577 7.30291193,10.723544 6.77024148,10.917081 C6.23757102,11.1106179 5.64630682,11.2073864 4.99644886,11.2073864 C4.03764205,11.2073864 3.18181818,10.9854403 2.42897727,10.5415483 C1.67613636,10.0976562 1.08309659,9.45667614 0.649857955,8.61860795 C0.216619318,7.78053977 0,6.77556818 0,5.60369318 C0,4.42826705 0.218394886,3.42240767 0.655184659,2.58611506 C1.09197443,1.74982244 1.68678977,1.10973011 2.43963068,0.665838068 C3.19247159,0.221946023 4.04474432,0 4.99644886,0 Z"></path></clipPath><clipPath id="i48"><path d="M7.09517045,0 L7.09517045,1.65660511 L1.97620739,1.65660511 L1.97620739,4.61825284 L6.72762784,4.61825284 L6.72762784,6.27485795 L1.97620739,6.27485795 L1.97620739,9.2524858 L7.13778409,9.2524858 L7.13778409,10.9090909 L0,10.9090909 L0,0 L7.09517045,0 Z"></path></clipPath><clipPath id="i49"><path d="M1.76846591,0 L6.90340909,7.43607955 L6.99928977,7.43607955 L6.99928977,0 L8.96484375,0 L8.96484375,10.9090909 L7.20703125,10.9090909 L2.06676136,3.47833807 L1.97620739,3.47833807 L1.97620739,10.9090909 L0,10.9090909 L0,0 L1.76846591,0 Z"></path></clipPath><clipPath id="i50"><path d="M8.70383523,0 L8.70383523,1.65660511 L5.33203125,1.65660511 L5.33203125,10.9090909 L3.37180398,10.9090909 L3.37180398,1.65660511 L0,1.65660511 L0,0 L8.70383523,0 Z"></path></clipPath><clipPath id="i51"><path d="M7.09517045,0 L7.09517045,1.65660511 L1.97620739,1.65660511 L1.97620739,4.61825284 L6.72762784,4.61825284 L6.72762784,6.27485795 L1.97620739,6.27485795 L1.97620739,9.2524858 L7.13778409,9.2524858 L7.13778409,10.9090909 L0,10.9090909 L0,0 L7.09517045,0 Z"></path></clipPath><clipPath id="i52"><path d="M4.09090909,0 C4.92897727,0 5.63299006,0.145596591 6.20294744,0.436789773 C6.77290483,0.727982955 7.2043679,1.13547585 7.49733665,1.65926847 C7.7903054,2.18306108 7.93678977,2.79296875 7.93678977,3.48899148 C7.93678977,4.18856534 7.78852983,4.79492188 7.49200994,5.30806108 C7.19549006,5.82120028 6.75958807,6.21715199 6.18430398,6.49591619 L5.975,6.587 L8.33629261,10.9090909 L6.13103693,10.9090909 L3.987,6.914 L1.976,6.914 L1.97620739,10.9090909 L0,10.9090909 L0,0 L4.09090909,0 Z M3.78728693,1.65127841 L1.97620739,1.65127841 L1.976,5.273 L3.79794034,5.2734375 C4.28799716,5.2734375 4.68927557,5.20507812 5.00177557,5.06835938 C5.31427557,4.93164062 5.54598722,4.73100142 5.69691051,4.46644176 C5.84783381,4.2018821 5.92329545,3.87606534 5.92329545,3.48899148 C5.92329545,3.10191761 5.84694602,2.77077415 5.69424716,2.49556108 C5.5415483,2.22034801 5.30894886,2.01083097 4.99644886,1.86700994 C4.68394886,1.72318892 4.28089489,1.65127841 3.78728693,1.65127841 Z"></path></clipPath><clipPath id="i53"><path d="M4.17613636,0 C4.96448864,0 5.62056108,0.123401989 6.14435369,0.370205966 C6.66814631,0.617009943 7.06054687,0.953480114 7.3215554,1.37961648 C7.58256392,1.80575284 7.71306818,2.28870739 7.71306818,2.82848011 C7.71306818,3.27237216 7.62784091,3.65145597 7.45738636,3.96573153 C7.28693182,4.2800071 7.05788352,4.53480114 6.77024148,4.73011364 C6.48259943,4.92542614 6.16122159,5.06569602 5.80610795,5.1509233 L5.80610795,5.25745739 C6.19318182,5.2787642 6.56516335,5.39683949 6.92205256,5.61168324 C7.27894176,5.82652699 7.57102273,6.12926136 7.79829545,6.51988636 C8.02556818,6.91051136 8.13920455,7.3828125 8.13920455,7.93678977 C8.13920455,8.50142045 8.0024858,9.00834517 7.7290483,9.45756392 C7.4556108,9.90678267 7.04367898,10.2610085 6.49325284,10.5202415 C5.9428267,10.7794744 5.25035511,10.9090909 4.41583807,10.9090909 L0,10.9090909 L0,0 L4.17613636,0 Z M4.15482955,6.06178977 L1.97620739,6.06178977 L1.97620739,9.2578125 L4.1015625,9.2578125 C4.81889205,9.2578125 5.33647017,9.12020597 5.65429688,8.8449929 C5.97212358,8.56977983 6.13103693,8.21555398 6.13103693,7.78231534 C6.13103693,7.45916193 6.05113636,7.16708097 5.89133523,6.90607244 C5.73153409,6.64506392 5.50426136,6.43909801 5.20951705,6.28817472 C4.91477273,6.13725142 4.56321023,6.06178977 4.15482955,6.06178977 Z M3.97372159,1.62997159 L1.97620739,1.62997159 L1.97620739,4.63955966 L3.93110795,4.63955966 C4.27201705,4.63955966 4.57919034,4.57652699 4.85262784,4.45046165 C5.12606534,4.32439631 5.34179687,4.14506392 5.49982244,3.91246449 C5.65784801,3.67986506 5.7368608,3.4037642 5.7368608,3.08416193 C5.7368608,2.6615767 5.58860085,2.31356534 5.29208097,2.04012784 C4.99556108,1.76669034 4.55610795,1.62997159 3.97372159,1.62997159 Z"></path></clipPath><clipPath id="i54"><path d="M4.09090909,0 C4.92897727,0 5.63299006,0.145596591 6.20294744,0.436789773 C6.77290483,0.727982955 7.2043679,1.13547585 7.49733665,1.65926847 C7.7903054,2.18306108 7.93678977,2.79296875 7.93678977,3.48899148 C7.93678977,4.18856534 7.78852983,4.79492188 7.49200994,5.30806108 C7.19549006,5.82120028 6.75958807,6.21715199 6.18430398,6.49591619 L5.975,6.587 L8.33629261,10.9090909 L6.13103693,10.9090909 L3.987,6.914 L1.976,6.914 L1.97620739,10.9090909 L0,10.9090909 L0,0 L4.09090909,0 Z M3.78728693,1.65127841 L1.97620739,1.65127841 L1.976,5.273 L3.79794034,5.2734375 C4.28799716,5.2734375 4.68927557,5.20507812 5.00177557,5.06835938 C5.31427557,4.93164062 5.54598722,4.73100142 5.69691051,4.46644176 C5.84783381,4.2018821 5.92329545,3.87606534 5.92329545,3.48899148 C5.92329545,3.10191761 5.84694602,2.77077415 5.69424716,2.49556108 C5.5415483,2.22034801 5.30894886,2.01083097 4.99644886,1.86700994 C4.68394886,1.72318892 4.28089489,1.65127841 3.78728693,1.65127841 Z"></path></clipPath><clipPath id="i55"><path d="M6.28018466,0 L10.1260653,10.9090909 L8.01669034,10.9090909 L7.112,8.219 L3.011,8.219 L2.109375,10.9090909 L0,10.9090909 L3.84055398,0 L6.28018466,0 Z M5.10298295,2.23721591 L5.01775568,2.23721591 L3.544,6.631 L6.578,6.631 L5.10298295,2.23721591 Z"></path></clipPath><clipPath id="i56"><path d="M1.76846591,0 L6.90340909,7.43607955 L6.99928977,7.43607955 L6.99928977,0 L8.96484375,0 L8.96484375,10.9090909 L7.20703125,10.9090909 L2.06676136,3.47833807 L1.97620739,3.47833807 L1.97620739,10.9090909 L0,10.9090909 L0,0 L1.76846591,0 Z"></path></clipPath><clipPath id="i57"><path d="M4.99644886,0 C5.60369318,0 6.16832386,0.0852272727 6.69034091,0.255681818 C7.21235795,0.426136364 7.67755682,0.675603693 8.0859375,1.00408381 C8.49431818,1.33256392 8.83078835,1.73384233 9.09534801,2.20791903 C9.35990767,2.68199574 9.53302557,3.22265625 9.6147017,3.82990057 L7.6225142,3.82990057 C7.56569602,3.50319602 7.4609375,3.21289062 7.30823864,2.95898438 C7.15553977,2.70507812 6.96555398,2.48934659 6.73828125,2.31178977 C6.51100852,2.13423295 6.25266335,2.00017756 5.96324574,1.90962358 C5.67382812,1.8190696 5.36221591,1.77379261 5.02840909,1.77379261 C4.43536932,1.77379261 3.90980114,1.92205256 3.45170455,2.21857244 C2.99360795,2.51509233 2.63494318,2.94833097 2.37571023,3.51828835 C2.11647727,4.08824574 1.9868608,4.78338068 1.9868608,5.60369318 C1.9868608,6.43821023 2.11736506,7.14044744 2.37837358,7.71040483 C2.6393821,8.28036222 2.99804688,8.71004972 3.4543679,8.99946733 C3.91068892,9.28888494 4.43359375,9.43359375 5.02308239,9.43359375 C5.34978693,9.43359375 5.65607244,9.39009233 5.94193892,9.30308949 C6.2278054,9.21608665 6.48526278,9.08735795 6.71431108,8.91690341 C6.94335938,8.74644886 7.13689631,8.53693182 7.29492188,8.28835227 C7.45294744,8.03977273 7.56214489,7.75568182 7.6225142,7.43607955 L9.6147017,7.44673295 C9.54012784,7.96519886 9.37943892,8.45170455 9.13263494,8.90625 C8.88583097,9.36079545 8.56356534,9.76118608 8.16583807,10.1074219 C7.7681108,10.4536577 7.30291193,10.723544 6.77024148,10.917081 C6.23757102,11.1106179 5.64630682,11.2073864 4.99644886,11.2073864 C4.03764205,11.2073864 3.18181818,10.9854403 2.42897727,10.5415483 C1.67613636,10.0976562 1.08309659,9.45667614 0.649857955,8.61860795 C0.216619318,7.78053977 0,6.77556818 0,5.60369318 C0,4.42826705 0.218394886,3.42240767 0.655184659,2.58611506 C1.09197443,1.74982244 1.68678977,1.10973011 2.43963068,0.665838068 C3.19247159,0.221946023 4.04474432,0 4.99644886,0 Z"></path></clipPath><clipPath id="i58"><path d="M1.97620739,0 L1.97620739,4.61825284 L7.03125,4.61825284 L7.03125,0 L9.01278409,0 L9.01278409,10.9090909 L7.03125,10.9090909 L7.03125,6.27485795 L1.97620739,6.27485795 L1.97620739,10.9090909 L0,10.9090909 L0,0 L1.97620739,0 Z"></path></clipPath><clipPath id="i59"><path d="M5.01242898,0 C5.96768466,0 6.82262074,0.221946023 7.57723722,0.665838068 C8.33185369,1.10973011 8.9284446,1.74982244 9.36700994,2.58611506 C9.80557528,3.42240767 10.024858,4.42826705 10.024858,5.60369318 C10.024858,6.77911932 9.80557528,7.78497869 9.36700994,8.62127131 C8.9284446,9.45756392 8.33185369,10.0976562 7.57723722,10.5415483 C6.82262074,10.9854403 5.96768466,11.2073864 5.01242898,11.2073864 C4.0571733,11.2073864 3.20223722,10.9845526 2.44762074,10.5388849 C1.69300426,10.0932173 1.09641335,9.45223722 0.657848011,8.6159446 C0.21928267,7.77965199 0,6.77556818 0,5.60369318 C0,4.42826705 0.21928267,3.42240767 0.657848011,2.58611506 C1.09641335,1.74982244 1.69300426,1.10973011 2.44762074,0.665838068 C3.20223722,0.221946023 4.0571733,0 5.01242898,0 Z M5.01242898,1.77379261 C4.4193892,1.77379261 3.89559659,1.92027699 3.44105114,2.21324574 C2.98650568,2.50621449 2.63050426,2.93767756 2.37304688,3.50763494 C2.11558949,4.07759233 1.9868608,4.77627841 1.9868608,5.60369318 C1.9868608,6.43110795 2.11558949,7.12979403 2.37304688,7.69975142 C2.63050426,8.26970881 2.98650568,8.70117188 3.44105114,8.99414062 C3.89559659,9.28710938 4.4193892,9.43359375 5.01242898,9.43359375 C5.60546875,9.43359375 6.12926136,9.28710938 6.58380682,8.99414062 C7.03835227,8.70117188 7.39435369,8.26970881 7.65181108,7.69975142 C7.90926847,7.12979403 8.03799716,6.43110795 8.03799716,5.60369318 C8.03799716,4.77627841 7.90926847,4.07759233 7.65181108,3.50763494 C7.39435369,2.93767756 7.03835227,2.50621449 6.58380682,2.21324574 C6.12926136,1.92027699 5.60546875,1.77379261 5.01242898,1.77379261 Z"></path></clipPath><clipPath id="i60"><path d="M6.98863636,0 L6.98863636,1.65660511 L1.97620739,1.65660511 L1.97620739,4.61825284 L6.50923295,4.61825284 L6.50923295,6.27485795 L1.97620739,6.27485795 L1.97620739,10.9090909 L0,10.9090909 L0,0 L6.98863636,0 Z"></path></clipPath><clipPath id="i61"><path d="M6.98863636,0 L6.98863636,1.65660511 L1.97620739,1.65660511 L1.97620739,4.61825284 L6.50923295,4.61825284 L6.50923295,6.27485795 L1.97620739,6.27485795 L1.97620739,10.9090909 L0,10.9090909 L0,0 L6.98863636,0 Z"></path></clipPath><clipPath id="i62"><path d="M1.97620739,0 L1.97620739,10.9090909 L0,10.9090909 L0,0 L1.97620739,0 Z"></path></clipPath><clipPath id="i63"><path d="M4.99644886,0 C5.60369318,0 6.16832386,0.0852272727 6.69034091,0.255681818 C7.21235795,0.426136364 7.67755682,0.675603693 8.0859375,1.00408381 C8.49431818,1.33256392 8.83078835,1.73384233 9.09534801,2.20791903 C9.35990767,2.68199574 9.53302557,3.22265625 9.6147017,3.82990057 L7.6225142,3.82990057 C7.56569602,3.50319602 7.4609375,3.21289062 7.30823864,2.95898438 C7.15553977,2.70507812 6.96555398,2.48934659 6.73828125,2.31178977 C6.51100852,2.13423295 6.25266335,2.00017756 5.96324574,1.90962358 C5.67382812,1.8190696 5.36221591,1.77379261 5.02840909,1.77379261 C4.43536932,1.77379261 3.90980114,1.92205256 3.45170455,2.21857244 C2.99360795,2.51509233 2.63494318,2.94833097 2.37571023,3.51828835 C2.11647727,4.08824574 1.9868608,4.78338068 1.9868608,5.60369318 C1.9868608,6.43821023 2.11736506,7.14044744 2.37837358,7.71040483 C2.6393821,8.28036222 2.99804688,8.71004972 3.4543679,8.99946733 C3.91068892,9.28888494 4.43359375,9.43359375 5.02308239,9.43359375 C5.34978693,9.43359375 5.65607244,9.39009233 5.94193892,9.30308949 C6.2278054,9.21608665 6.48526278,9.08735795 6.71431108,8.91690341 C6.94335938,8.74644886 7.13689631,8.53693182 7.29492188,8.28835227 C7.45294744,8.03977273 7.56214489,7.75568182 7.6225142,7.43607955 L9.6147017,7.44673295 C9.54012784,7.96519886 9.37943892,8.45170455 9.13263494,8.90625 C8.88583097,9.36079545 8.56356534,9.76118608 8.16583807,10.1074219 C7.7681108,10.4536577 7.30291193,10.723544 6.77024148,10.917081 C6.23757102,11.1106179 5.64630682,11.2073864 4.99644886,11.2073864 C4.03764205,11.2073864 3.18181818,10.9854403 2.42897727,10.5415483 C1.67613636,10.0976562 1.08309659,9.45667614 0.649857955,8.61860795 C0.216619318,7.78053977 0,6.77556818 0,5.60369318 C0,4.42826705 0.218394886,3.42240767 0.655184659,2.58611506 C1.09197443,1.74982244 1.68678977,1.10973011 2.43963068,0.665838068 C3.19247159,0.221946023 4.04474432,0 4.99644886,0 Z"></path></clipPath><clipPath id="i64"><path d="M7.09517045,0 L7.09517045,1.65660511 L1.97620739,1.65660511 L1.97620739,4.61825284 L6.72762784,4.61825284 L6.72762784,6.27485795 L1.97620739,6.27485795 L1.97620739,9.2524858 L7.13778409,9.2524858 L7.13778409,10.9090909 L0,10.9090909 L0,0 L7.09517045,0 Z"></path></clipPath><clipPath id="i65"><path d="M4.59161932,0 L4.59161932,10.9090909 L2.61541193,10.9090909 L2.61541193,1.92294034 L2.55149148,1.92294034 L0,3.55291193 L0,1.74183239 L2.71129261,0 L4.59161932,0 Z"></path></clipPath><clipPath id="i66"><path d="M4.17613636,0 C4.96448864,0 5.62056108,0.123401989 6.14435369,0.370205966 C6.66814631,0.617009943 7.06054687,0.953480114 7.3215554,1.37961648 C7.58256392,1.80575284 7.71306818,2.28870739 7.71306818,2.82848011 C7.71306818,3.27237216 7.62784091,3.65145597 7.45738636,3.96573153 C7.28693182,4.2800071 7.05788352,4.53480114 6.77024148,4.73011364 C6.48259943,4.92542614 6.16122159,5.06569602 5.80610795,5.1509233 L5.80610795,5.25745739 C6.19318182,5.2787642 6.56516335,5.39683949 6.92205256,5.61168324 C7.27894176,5.82652699 7.57102273,6.12926136 7.79829545,6.51988636 C8.02556818,6.91051136 8.13920455,7.3828125 8.13920455,7.93678977 C8.13920455,8.50142045 8.0024858,9.00834517 7.7290483,9.45756392 C7.4556108,9.90678267 7.04367898,10.2610085 6.49325284,10.5202415 C5.9428267,10.7794744 5.25035511,10.9090909 4.41583807,10.9090909 L0,10.9090909 L0,0 L4.17613636,0 Z M4.15482955,6.06178977 L1.97620739,6.06178977 L1.97620739,9.2578125 L4.1015625,9.2578125 C4.81889205,9.2578125 5.33647017,9.12020597 5.65429688,8.8449929 C5.97212358,8.56977983 6.13103693,8.21555398 6.13103693,7.78231534 C6.13103693,7.45916193 6.05113636,7.16708097 5.89133523,6.90607244 C5.73153409,6.64506392 5.50426136,6.43909801 5.20951705,6.28817472 C4.91477273,6.13725142 4.56321023,6.06178977 4.15482955,6.06178977 Z M3.97372159,1.62997159 L1.97620739,1.62997159 L1.97620739,4.63955966 L3.93110795,4.63955966 C4.27201705,4.63955966 4.57919034,4.57652699 4.85262784,4.45046165 C5.12606534,4.32439631 5.34179687,4.14506392 5.49982244,3.91246449 C5.65784801,3.67986506 5.7368608,3.4037642 5.7368608,3.08416193 C5.7368608,2.6615767 5.58860085,2.31356534 5.29208097,2.04012784 C4.99556108,1.76669034 4.55610795,1.62997159 3.97372159,1.62997159 Z"></path></clipPath><clipPath id="i67"><path d="M4.09090909,0 C4.92897727,0 5.63299006,0.145596591 6.20294744,0.436789773 C6.77290483,0.727982955 7.2043679,1.13547585 7.49733665,1.65926847 C7.7903054,2.18306108 7.93678977,2.79296875 7.93678977,3.48899148 C7.93678977,4.18856534 7.78852983,4.79492188 7.49200994,5.30806108 C7.19549006,5.82120028 6.75958807,6.21715199 6.18430398,6.49591619 L5.975,6.587 L8.33629261,10.9090909 L6.13103693,10.9090909 L3.987,6.914 L1.976,6.914 L1.97620739,10.9090909 L0,10.9090909 L0,0 L4.09090909,0 Z M3.78728693,1.65127841 L1.97620739,1.65127841 L1.976,5.273 L3.79794034,5.2734375 C4.28799716,5.2734375 4.68927557,5.20507812 5.00177557,5.06835938 C5.31427557,4.93164062 5.54598722,4.73100142 5.69691051,4.46644176 C5.84783381,4.2018821 5.92329545,3.87606534 5.92329545,3.48899148 C5.92329545,3.10191761 5.84694602,2.77077415 5.69424716,2.49556108 C5.5415483,2.22034801 5.30894886,2.01083097 4.99644886,1.86700994 C4.68394886,1.72318892 4.28089489,1.65127841 3.78728693,1.65127841 Z"></path></clipPath><clipPath id="i68"><path d="M6.28018466,0 L10.1260653,10.9090909 L8.01669034,10.9090909 L7.112,8.219 L3.011,8.219 L2.109375,10.9090909 L0,10.9090909 L3.84055398,0 L6.28018466,0 Z M5.10298295,2.23721591 L5.01775568,2.23721591 L3.544,6.631 L6.578,6.631 L5.10298295,2.23721591 Z"></path></clipPath><clipPath id="i69"><path d="M1.76846591,0 L6.90340909,7.43607955 L6.99928977,7.43607955 L6.99928977,0 L8.96484375,0 L8.96484375,10.9090909 L7.20703125,10.9090909 L2.06676136,3.47833807 L1.97620739,3.47833807 L1.97620739,10.9090909 L0,10.9090909 L0,0 L1.76846591,0 Z"></path></clipPath><clipPath id="i70"><path d="M4.99644886,0 C5.60369318,0 6.16832386,0.0852272727 6.69034091,0.255681818 C7.21235795,0.426136364 7.67755682,0.675603693 8.0859375,1.00408381 C8.49431818,1.33256392 8.83078835,1.73384233 9.09534801,2.20791903 C9.35990767,2.68199574 9.53302557,3.22265625 9.6147017,3.82990057 L7.6225142,3.82990057 C7.56569602,3.50319602 7.4609375,3.21289062 7.30823864,2.95898438 C7.15553977,2.70507812 6.96555398,2.48934659 6.73828125,2.31178977 C6.51100852,2.13423295 6.25266335,2.00017756 5.96324574,1.90962358 C5.67382812,1.8190696 5.36221591,1.77379261 5.02840909,1.77379261 C4.43536932,1.77379261 3.90980114,1.92205256 3.45170455,2.21857244 C2.99360795,2.51509233 2.63494318,2.94833097 2.37571023,3.51828835 C2.11647727,4.08824574 1.9868608,4.78338068 1.9868608,5.60369318 C1.9868608,6.43821023 2.11736506,7.14044744 2.37837358,7.71040483 C2.6393821,8.28036222 2.99804688,8.71004972 3.4543679,8.99946733 C3.91068892,9.28888494 4.43359375,9.43359375 5.02308239,9.43359375 C5.34978693,9.43359375 5.65607244,9.39009233 5.94193892,9.30308949 C6.2278054,9.21608665 6.48526278,9.08735795 6.71431108,8.91690341 C6.94335938,8.74644886 7.13689631,8.53693182 7.29492188,8.28835227 C7.45294744,8.03977273 7.56214489,7.75568182 7.6225142,7.43607955 L9.6147017,7.44673295 C9.54012784,7.96519886 9.37943892,8.45170455 9.13263494,8.90625 C8.88583097,9.36079545 8.56356534,9.76118608 8.16583807,10.1074219 C7.7681108,10.4536577 7.30291193,10.723544 6.77024148,10.917081 C6.23757102,11.1106179 5.64630682,11.2073864 4.99644886,11.2073864 C4.03764205,11.2073864 3.18181818,10.9854403 2.42897727,10.5415483 C1.67613636,10.0976562 1.08309659,9.45667614 0.649857955,8.61860795 C0.216619318,7.78053977 0,6.77556818 0,5.60369318 C0,4.42826705 0.218394886,3.42240767 0.655184659,2.58611506 C1.09197443,1.74982244 1.68678977,1.10973011 2.43963068,0.665838068 C3.19247159,0.221946023 4.04474432,0 4.99644886,0 Z"></path></clipPath><clipPath id="i71"><path d="M1.97620739,0 L1.97620739,4.61825284 L7.03125,4.61825284 L7.03125,0 L9.01278409,0 L9.01278409,10.9090909 L7.03125,10.9090909 L7.03125,6.27485795 L1.97620739,6.27485795 L1.97620739,10.9090909 L0,10.9090909 L0,0 L1.97620739,0 Z"></path></clipPath><clipPath id="i72"><path d="M5.01242898,0 C5.96768466,0 6.82262074,0.221946023 7.57723722,0.665838068 C8.33185369,1.10973011 8.9284446,1.74982244 9.36700994,2.58611506 C9.80557528,3.42240767 10.024858,4.42826705 10.024858,5.60369318 C10.024858,6.77911932 9.80557528,7.78497869 9.36700994,8.62127131 C8.9284446,9.45756392 8.33185369,10.0976562 7.57723722,10.5415483 C6.82262074,10.9854403 5.96768466,11.2073864 5.01242898,11.2073864 C4.0571733,11.2073864 3.20223722,10.9845526 2.44762074,10.5388849 C1.69300426,10.0932173 1.09641335,9.45223722 0.657848011,8.6159446 C0.21928267,7.77965199 0,6.77556818 0,5.60369318 C0,4.42826705 0.21928267,3.42240767 0.657848011,2.58611506 C1.09641335,1.74982244 1.69300426,1.10973011 2.44762074,0.665838068 C3.20223722,0.221946023 4.0571733,0 5.01242898,0 Z M5.01242898,1.77379261 C4.4193892,1.77379261 3.89559659,1.92027699 3.44105114,2.21324574 C2.98650568,2.50621449 2.63050426,2.93767756 2.37304688,3.50763494 C2.11558949,4.07759233 1.9868608,4.77627841 1.9868608,5.60369318 C1.9868608,6.43110795 2.11558949,7.12979403 2.37304688,7.69975142 C2.63050426,8.26970881 2.98650568,8.70117188 3.44105114,8.99414062 C3.89559659,9.28710938 4.4193892,9.43359375 5.01242898,9.43359375 C5.60546875,9.43359375 6.12926136,9.28710938 6.58380682,8.99414062 C7.03835227,8.70117188 7.39435369,8.26970881 7.65181108,7.69975142 C7.90926847,7.12979403 8.03799716,6.43110795 8.03799716,5.60369318 C8.03799716,4.77627841 7.90926847,4.07759233 7.65181108,3.50763494 C7.39435369,2.93767756 7.03835227,2.50621449 6.58380682,2.21324574 C6.12926136,1.92027699 5.60546875,1.77379261 5.01242898,1.77379261 Z"></path></clipPath><clipPath id="i73"><path d="M6.98863636,0 L6.98863636,1.65660511 L1.97620739,1.65660511 L1.97620739,4.61825284 L6.50923295,4.61825284 L6.50923295,6.27485795 L1.97620739,6.27485795 L1.97620739,10.9090909 L0,10.9090909 L0,0 L6.98863636,0 Z"></path></clipPath><clipPath id="i74"><path d="M6.98863636,0 L6.98863636,1.65660511 L1.97620739,1.65660511 L1.97620739,4.61825284 L6.50923295,4.61825284 L6.50923295,6.27485795 L1.97620739,6.27485795 L1.97620739,10.9090909 L0,10.9090909 L0,0 L6.98863636,0 Z"></path></clipPath><clipPath id="i75"><path d="M1.97620739,0 L1.97620739,10.9090909 L0,10.9090909 L0,0 L1.97620739,0 Z"></path></clipPath><clipPath id="i76"><path d="M4.99644886,0 C5.60369318,0 6.16832386,0.0852272727 6.69034091,0.255681818 C7.21235795,0.426136364 7.67755682,0.675603693 8.0859375,1.00408381 C8.49431818,1.33256392 8.83078835,1.73384233 9.09534801,2.20791903 C9.35990767,2.68199574 9.53302557,3.22265625 9.6147017,3.82990057 L7.6225142,3.82990057 C7.56569602,3.50319602 7.4609375,3.21289062 7.30823864,2.95898438 C7.15553977,2.70507812 6.96555398,2.48934659 6.73828125,2.31178977 C6.51100852,2.13423295 6.25266335,2.00017756 5.96324574,1.90962358 C5.67382812,1.8190696 5.36221591,1.77379261 5.02840909,1.77379261 C4.43536932,1.77379261 3.90980114,1.92205256 3.45170455,2.21857244 C2.99360795,2.51509233 2.63494318,2.94833097 2.37571023,3.51828835 C2.11647727,4.08824574 1.9868608,4.78338068 1.9868608,5.60369318 C1.9868608,6.43821023 2.11736506,7.14044744 2.37837358,7.71040483 C2.6393821,8.28036222 2.99804688,8.71004972 3.4543679,8.99946733 C3.91068892,9.28888494 4.43359375,9.43359375 5.02308239,9.43359375 C5.34978693,9.43359375 5.65607244,9.39009233 5.94193892,9.30308949 C6.2278054,9.21608665 6.48526278,9.08735795 6.71431108,8.91690341 C6.94335938,8.74644886 7.13689631,8.53693182 7.29492188,8.28835227 C7.45294744,8.03977273 7.56214489,7.75568182 7.6225142,7.43607955 L9.6147017,7.44673295 C9.54012784,7.96519886 9.37943892,8.45170455 9.13263494,8.90625 C8.88583097,9.36079545 8.56356534,9.76118608 8.16583807,10.1074219 C7.7681108,10.4536577 7.30291193,10.723544 6.77024148,10.917081 C6.23757102,11.1106179 5.64630682,11.2073864 4.99644886,11.2073864 C4.03764205,11.2073864 3.18181818,10.9854403 2.42897727,10.5415483 C1.67613636,10.0976562 1.08309659,9.45667614 0.649857955,8.61860795 C0.216619318,7.78053977 0,6.77556818 0,5.60369318 C0,4.42826705 0.218394886,3.42240767 0.655184659,2.58611506 C1.09197443,1.74982244 1.68678977,1.10973011 2.43963068,0.665838068 C3.19247159,0.221946023 4.04474432,0 4.99644886,0 Z"></path></clipPath><clipPath id="i77"><path d="M7.09517045,0 L7.09517045,1.65660511 L1.97620739,1.65660511 L1.97620739,4.61825284 L6.72762784,4.61825284 L6.72762784,6.27485795 L1.97620739,6.27485795 L1.97620739,9.2524858 L7.13778409,9.2524858 L7.13778409,10.9090909 L0,10.9090909 L0,0 L7.09517045,0 Z"></path></clipPath><clipPath id="i78"><path d="M3.69673295,0 C4.42826705,0 5.07102273,0.13671875 5.625,0.41015625 C6.17897727,0.68359375 6.60955256,1.05823864 6.91672585,1.53409091 C7.22389915,2.00994318 7.3774858,2.55326705 7.3774858,3.1640625 C7.3774858,3.57244318 7.2993608,3.97372159 7.1431108,4.36789773 C6.9868608,4.76207386 6.71253551,5.19886364 6.32013494,5.67826705 C5.92773438,6.15767045 5.37819602,6.73828125 4.67151989,7.42009943 L2.79119318,9.33238636 L2.79119318,9.40696023 L7.54261364,9.40696023 L7.54261364,11.0582386 L0.0639204545,11.0582386 L0.0639204545,9.63068182 L3.85120739,5.91796875 C4.2134233,5.5522017 4.51526989,5.22727273 4.75674716,4.94318182 C4.99822443,4.65909091 5.17933239,4.38387784 5.30007102,4.11754261 C5.42080966,3.85120739 5.48117898,3.56711648 5.48117898,3.26526989 C5.48117898,2.92080966 5.40305398,2.62517756 5.24680398,2.37837358 C5.09055398,2.1315696 4.87571023,1.94069602 4.60227273,1.80575284 C4.32883523,1.67080966 4.0181108,1.60333807 3.67009943,1.60333807 C3.31143466,1.60333807 2.99715909,1.67702415 2.72727273,1.82439631 C2.45738636,1.97176847 2.2487571,2.18039773 2.10138494,2.45028409 C1.95401278,2.72017045 1.8803267,3.0415483 1.8803267,3.41441761 L0,3.41441761 C0,2.72194602 0.158025568,2.12002841 0.474076705,1.60866477 C0.790127841,1.09730114 1.22602983,0.701349432 1.78178267,0.420809659 C2.33753551,0.140269886 2.97585227,0 3.69673295,0 Z"></path></clipPath><clipPath id="i79"><path d="M4.17613636,0 C4.96448864,0 5.62056108,0.123401989 6.14435369,0.370205966 C6.66814631,0.617009943 7.06054688,0.953480114 7.3215554,1.37961648 C7.58256392,1.80575284 7.71306818,2.28870739 7.71306818,2.82848011 C7.71306818,3.27237216 7.62784091,3.65145597 7.45738636,3.96573153 C7.28693182,4.2800071 7.05788352,4.53480114 6.77024148,4.73011364 C6.48259943,4.92542614 6.16122159,5.06569602 5.80610795,5.1509233 L5.80610795,5.25745739 C6.19318182,5.2787642 6.56516335,5.39683949 6.92205256,5.61168324 C7.27894176,5.82652699 7.57102273,6.12926136 7.79829545,6.51988636 C8.02556818,6.91051136 8.13920455,7.3828125 8.13920455,7.93678977 C8.13920455,8.50142045 8.0024858,9.00834517 7.7290483,9.45756392 C7.4556108,9.90678267 7.04367898,10.2610085 6.49325284,10.5202415 C5.9428267,10.7794744 5.25035511,10.9090909 4.41583807,10.9090909 L0,10.9090909 L0,0 L4.17613636,0 Z M4.15482955,6.06178977 L1.97620739,6.06178977 L1.97620739,9.2578125 L4.1015625,9.2578125 C4.81889205,9.2578125 5.33647017,9.12020597 5.65429688,8.8449929 C5.97212358,8.56977983 6.13103693,8.21555398 6.13103693,7.78231534 C6.13103693,7.45916193 6.05113636,7.16708097 5.89133523,6.90607244 C5.73153409,6.64506392 5.50426136,6.43909801 5.20951705,6.28817472 C4.91477273,6.13725142 4.56321023,6.06178977 4.15482955,6.06178977 Z M3.97372159,1.62997159 L1.97620739,1.62997159 L1.97620739,4.63955966 L3.93110795,4.63955966 C4.27201705,4.63955966 4.57919034,4.57652699 4.85262784,4.45046165 C5.12606534,4.32439631 5.34179688,4.14506392 5.49982244,3.91246449 C5.65784801,3.67986506 5.7368608,3.4037642 5.7368608,3.08416193 C5.7368608,2.6615767 5.58860085,2.31356534 5.29208097,2.04012784 C4.99556108,1.76669034 4.55610795,1.62997159 3.97372159,1.62997159 Z"></path></clipPath><clipPath id="i80"><path d="M4.09090909,0 C4.92897727,0 5.63299006,0.145596591 6.20294744,0.436789773 C6.77290483,0.727982955 7.2043679,1.13547585 7.49733665,1.65926847 C7.7903054,2.18306108 7.93678977,2.79296875 7.93678977,3.48899148 C7.93678977,4.18856534 7.78852983,4.79492187 7.49200994,5.30806108 C7.19549006,5.82120028 6.75958807,6.21715199 6.18430398,6.49591619 L5.975,6.587 L8.33629261,10.9090909 L6.13103693,10.9090909 L3.987,6.914 L1.976,6.914 L1.97620739,10.9090909 L0,10.9090909 L0,0 L4.09090909,0 Z M3.78728693,1.65127841 L1.97620739,1.65127841 L1.976,5.273 L3.79794034,5.2734375 C4.28799716,5.2734375 4.68927557,5.20507812 5.00177557,5.06835938 C5.31427557,4.93164062 5.54598722,4.73100142 5.69691051,4.46644176 C5.84783381,4.2018821 5.92329545,3.87606534 5.92329545,3.48899148 C5.92329545,3.10191761 5.84694602,2.77077415 5.69424716,2.49556108 C5.5415483,2.22034801 5.30894886,2.01083097 4.99644886,1.86700994 C4.68394886,1.72318892 4.28089489,1.65127841 3.78728693,1.65127841 Z"></path></clipPath><clipPath id="i81"><path d="M6.28018466,0 L10.1260653,10.9090909 L8.01669034,10.9090909 L7.112,8.219 L3.011,8.219 L2.109375,10.9090909 L0,10.9090909 L3.84055398,0 L6.28018466,0 Z M5.10298295,2.23721591 L5.01775568,2.23721591 L3.544,6.631 L6.578,6.631 L5.10298295,2.23721591 Z"></path></clipPath><clipPath id="i82"><path d="M1.76846591,0 L6.90340909,7.43607955 L6.99928977,7.43607955 L6.99928977,0 L8.96484375,0 L8.96484375,10.9090909 L7.20703125,10.9090909 L2.06676136,3.47833807 L1.97620739,3.47833807 L1.97620739,10.9090909 L0,10.9090909 L0,0 L1.76846591,0 Z"></path></clipPath><clipPath id="i83"><path d="M4.99644886,0 C5.60369318,0 6.16832386,0.0852272727 6.69034091,0.255681818 C7.21235795,0.426136364 7.67755682,0.675603693 8.0859375,1.00408381 C8.49431818,1.33256392 8.83078835,1.73384233 9.09534801,2.20791903 C9.35990767,2.68199574 9.53302557,3.22265625 9.6147017,3.82990057 L7.6225142,3.82990057 C7.56569602,3.50319602 7.4609375,3.21289062 7.30823864,2.95898438 C7.15553977,2.70507812 6.96555398,2.48934659 6.73828125,2.31178977 C6.51100852,2.13423295 6.25266335,2.00017756 5.96324574,1.90962358 C5.67382813,1.8190696 5.36221591,1.77379261 5.02840909,1.77379261 C4.43536932,1.77379261 3.90980114,1.92205256 3.45170455,2.21857244 C2.99360795,2.51509233 2.63494318,2.94833097 2.37571023,3.51828835 C2.11647727,4.08824574 1.9868608,4.78338068 1.9868608,5.60369318 C1.9868608,6.43821023 2.11736506,7.14044744 2.37837358,7.71040483 C2.6393821,8.28036222 2.99804687,8.71004972 3.4543679,8.99946733 C3.91068892,9.28888494 4.43359375,9.43359375 5.02308239,9.43359375 C5.34978693,9.43359375 5.65607244,9.39009233 5.94193892,9.30308949 C6.2278054,9.21608665 6.48526278,9.08735795 6.71431108,8.91690341 C6.94335938,8.74644886 7.13689631,8.53693182 7.29492188,8.28835227 C7.45294744,8.03977273 7.56214489,7.75568182 7.6225142,7.43607955 L9.6147017,7.44673295 C9.54012784,7.96519886 9.37943892,8.45170455 9.13263494,8.90625 C8.88583097,9.36079545 8.56356534,9.76118608 8.16583807,10.1074219 C7.7681108,10.4536577 7.30291193,10.723544 6.77024148,10.917081 C6.23757102,11.1106179 5.64630682,11.2073864 4.99644886,11.2073864 C4.03764205,11.2073864 3.18181818,10.9854403 2.42897727,10.5415483 C1.67613636,10.0976562 1.08309659,9.45667614 0.649857955,8.61860795 C0.216619318,7.78053977 0,6.77556818 0,5.60369318 C0,4.42826705 0.218394886,3.42240767 0.655184659,2.58611506 C1.09197443,1.74982244 1.68678977,1.10973011 2.43963068,0.665838068 C3.19247159,0.221946023 4.04474432,0 4.99644886,0 Z"></path></clipPath><clipPath id="i84"><path d="M1.97620739,0 L1.97620739,4.61825284 L7.03125,4.61825284 L7.03125,0 L9.01278409,0 L9.01278409,10.9090909 L7.03125,10.9090909 L7.03125,6.27485795 L1.97620739,6.27485795 L1.97620739,10.9090909 L0,10.9090909 L0,0 L1.97620739,0 Z"></path></clipPath><clipPath id="i85"><path d="M5.01242898,0 C5.96768466,0 6.82262074,0.221946023 7.57723722,0.665838068 C8.33185369,1.10973011 8.9284446,1.74982244 9.36700994,2.58611506 C9.80557528,3.42240767 10.024858,4.42826705 10.024858,5.60369318 C10.024858,6.77911932 9.80557528,7.78497869 9.36700994,8.62127131 C8.9284446,9.45756392 8.33185369,10.0976562 7.57723722,10.5415483 C6.82262074,10.9854403 5.96768466,11.2073864 5.01242898,11.2073864 C4.0571733,11.2073864 3.20223722,10.9845526 2.44762074,10.5388849 C1.69300426,10.0932173 1.09641335,9.45223722 0.657848011,8.6159446 C0.21928267,7.77965199 0,6.77556818 0,5.60369318 C0,4.42826705 0.21928267,3.42240767 0.657848011,2.58611506 C1.09641335,1.74982244 1.69300426,1.10973011 2.44762074,0.665838068 C3.20223722,0.221946023 4.0571733,0 5.01242898,0 Z M5.01242898,1.77379261 C4.4193892,1.77379261 3.89559659,1.92027699 3.44105114,2.21324574 C2.98650568,2.50621449 2.63050426,2.93767756 2.37304688,3.50763494 C2.11558949,4.07759233 1.9868608,4.77627841 1.9868608,5.60369318 C1.9868608,6.43110795 2.11558949,7.12979403 2.37304688,7.69975142 C2.63050426,8.26970881 2.98650568,8.70117188 3.44105114,8.99414062 C3.89559659,9.28710938 4.4193892,9.43359375 5.01242898,9.43359375 C5.60546875,9.43359375 6.12926136,9.28710938 6.58380682,8.99414062 C7.03835227,8.70117188 7.39435369,8.26970881 7.65181108,7.69975142 C7.90926847,7.12979403 8.03799716,6.43110795 8.03799716,5.60369318 C8.03799716,4.77627841 7.90926847,4.07759233 7.65181108,3.50763494 C7.39435369,2.93767756 7.03835227,2.50621449 6.58380682,2.21324574 C6.12926136,1.92027699 5.60546875,1.77379261 5.01242898,1.77379261 Z"></path></clipPath><clipPath id="i86"><path d="M6.98863636,0 L6.98863636,1.65660511 L1.97620739,1.65660511 L1.97620739,4.61825284 L6.50923295,4.61825284 L6.50923295,6.27485795 L1.97620739,6.27485795 L1.97620739,10.9090909 L0,10.9090909 L0,0 L6.98863636,0 Z"></path></clipPath><clipPath id="i87"><path d="M6.98863636,0 L6.98863636,1.65660511 L1.97620739,1.65660511 L1.97620739,4.61825284 L6.50923295,4.61825284 L6.50923295,6.27485795 L1.97620739,6.27485795 L1.97620739,10.9090909 L0,10.9090909 L0,0 L6.98863636,0 Z"></path></clipPath><clipPath id="i88"><path d="M1.97620739,0 L1.97620739,10.9090909 L0,10.9090909 L0,0 L1.97620739,0 Z"></path></clipPath><clipPath id="i89"><path d="M4.99644886,0 C5.60369318,0 6.16832386,0.0852272727 6.69034091,0.255681818 C7.21235795,0.426136364 7.67755682,0.675603693 8.0859375,1.00408381 C8.49431818,1.33256392 8.83078835,1.73384233 9.09534801,2.20791903 C9.35990767,2.68199574 9.53302557,3.22265625 9.6147017,3.82990057 L7.6225142,3.82990057 C7.56569602,3.50319602 7.4609375,3.21289062 7.30823864,2.95898438 C7.15553977,2.70507812 6.96555398,2.48934659 6.73828125,2.31178977 C6.51100852,2.13423295 6.25266335,2.00017756 5.96324574,1.90962358 C5.67382812,1.8190696 5.36221591,1.77379261 5.02840909,1.77379261 C4.43536932,1.77379261 3.90980114,1.92205256 3.45170455,2.21857244 C2.99360795,2.51509233 2.63494318,2.94833097 2.37571023,3.51828835 C2.11647727,4.08824574 1.9868608,4.78338068 1.9868608,5.60369318 C1.9868608,6.43821023 2.11736506,7.14044744 2.37837358,7.71040483 C2.6393821,8.28036222 2.99804688,8.71004972 3.4543679,8.99946733 C3.91068892,9.28888494 4.43359375,9.43359375 5.02308239,9.43359375 C5.34978693,9.43359375 5.65607244,9.39009233 5.94193892,9.30308949 C6.2278054,9.21608665 6.48526278,9.08735795 6.71431108,8.91690341 C6.94335938,8.74644886 7.13689631,8.53693182 7.29492188,8.28835227 C7.45294744,8.03977273 7.56214489,7.75568182 7.6225142,7.43607955 L9.6147017,7.44673295 C9.54012784,7.96519886 9.37943892,8.45170455 9.13263494,8.90625 C8.88583097,9.36079545 8.56356534,9.76118608 8.16583807,10.1074219 C7.7681108,10.4536577 7.30291193,10.723544 6.77024148,10.917081 C6.23757102,11.1106179 5.64630682,11.2073864 4.99644886,11.2073864 C4.03764205,11.2073864 3.18181818,10.9854403 2.42897727,10.5415483 C1.67613636,10.0976562 1.08309659,9.45667614 0.649857955,8.61860795 C0.216619318,7.78053977 0,6.77556818 0,5.60369318 C0,4.42826705 0.218394886,3.42240767 0.655184659,2.58611506 C1.09197443,1.74982244 1.68678977,1.10973011 2.43963068,0.665838068 C3.19247159,0.221946023 4.04474432,0 4.99644886,0 Z"></path></clipPath><clipPath id="i90"><path d="M7.09517045,0 L7.09517045,1.65660511 L1.97620739,1.65660511 L1.97620739,4.61825284 L6.72762784,4.61825284 L6.72762784,6.27485795 L1.97620739,6.27485795 L1.97620739,9.2524858 L7.13778409,9.2524858 L7.13778409,10.9090909 L0,10.9090909 L0,0 L7.09517045,0 Z"></path></clipPath><clipPath id="i91"><path d="M4.03231534,0 C4.7602983,0 5.39328835,0.135830966 5.93128551,0.407492898 C6.46928267,0.67915483 6.88565341,1.04403409 7.18039773,1.50213068 C7.47514205,1.96022727 7.6225142,2.4662642 7.6225142,3.02024148 C7.62606534,3.63458807 7.44584517,4.14950284 7.08185369,4.5649858 C6.71786222,4.98046875 6.24112216,5.25213068 5.65163352,5.37997159 L5.65163352,5.46519886 C6.41867898,5.57173295 7.00727983,5.85493608 7.41743608,6.31480824 C7.82759233,6.7746804 8.03089489,7.34552557 8.02738947,8.02734375 C8.02738947,8.6381392 7.85422585,9.18412642 7.50799006,9.6653054 C7.16175426,10.1464844 6.68590199,10.5237926 6.08043324,10.7972301 C5.47496449,11.0706676 4.78160511,11.2073864 4.00035511,11.2073864 C3.23330966,11.2073864 2.55237926,11.0759943 1.95756392,10.8132102 C1.36274858,10.5504261 0.893110795,10.1846591 0.548650568,9.71590909 C0.204190341,9.24715909 0.0213068182,8.7056108 0,8.0912642 L2.00284091,8.0912642 C2.02059659,8.38600852 2.11825284,8.64257812 2.29580966,8.86097301 C2.47336648,9.0793679 2.70951705,9.24893466 3.00426136,9.3696733 C3.29900568,9.49041193 3.62926136,9.55078125 3.99502841,9.55078125 C4.38565341,9.55078125 4.7318892,9.48242188 5.0337358,9.34570312 C5.33558239,9.20898438 5.57173295,9.0181108 5.7421875,8.77308239 C5.91264205,8.52805398 5.99609375,8.24573864 5.99254261,7.92613636 C5.99609375,7.59588068 5.91086648,7.3046875 5.7368608,7.05255682 C5.56285511,6.80042614 5.31161222,6.60333807 4.9831321,6.46129261 C4.65465199,6.31924716 4.25958807,6.24822443 3.79794034,6.24822443 L2.83380682,6.24822443 L2.83380682,4.72478693 L3.79794034,4.72478693 C4.17791193,4.72478693 4.51083097,4.65909091 4.79669744,4.52769886 C5.08256392,4.39630682 5.3071733,4.21075994 5.47052557,3.97105824 C5.63387784,3.73135653 5.71377841,3.45348011 5.71022727,3.13742898 C5.71377841,2.82848011 5.64541903,2.55948153 5.50514915,2.33043324 C5.36487926,2.10138494 5.16779119,1.92294034 4.91388494,1.79509943 C4.65997869,1.66725852 4.36257102,1.60333807 4.02166193,1.60333807 C3.68785511,1.60333807 3.37890625,1.66370739 3.09481534,1.78444602 C2.81072443,1.90518466 2.58167614,2.07652699 2.40767045,2.29847301 C2.23366477,2.52041903 2.14133523,2.78409091 2.13068182,3.08948864 L0.229048295,3.08948864 C0.243252841,2.47869318 0.419921875,1.94158381 0.759055398,1.47816051 C1.09818892,1.01473722 1.55184659,0.652521307 2.12002841,0.391512784 C2.68821023,0.130504261 3.3256392,0 4.03231534,0 Z"></path></clipPath></defs><g transform="translate(32.0 0.0)"><g transform="translate(115.2051282051284 114.7948717948718)"><g clip-path="url(#i0)"><path d="M127.5,255 C197.916306,255 255,197.916306 255,127.5 C255,57.0836944 197.916306,0 127.5,0 C57.0836944,0 0,57.0836944 0,127.5 C0,197.916306 57.0836944,255 127.5,255 Z" stroke="#0E172C" stroke-width="2" fill="none" stroke-miterlimit="5"></path></g></g><g transform="translate(75.99715099715101 75.99715099715101)"><g clip-path="url(#i1)"><path d="M166.502849,333.005698 C258.459833,333.005698 333.005698,258.459833 333.005698,166.502849 C333.005698,74.5458647 258.459833,0 166.502849,0 C74.5458647,0 0,74.5458647 0,166.502849 C0,258.459833 74.5458647,333.005698 166.502849,333.005698 Z" stroke="#0E172C" stroke-width="2" fill="none" stroke-miterlimit="5"></path></g></g><g transform="translate(34.54415954416001 34.54415954416001)"><g clip-path="url(#i2)"><path d="M207.95584,415.911681 C322.80668,415.911681 415.911681,322.80668 415.911681,207.95584 C415.911681,93.1050011 322.80668,0 207.95584,0 C93.1050011,0 0,93.1050011 0,207.95584 C0,322.80668 93.1050011,415.911681 207.95584,415.911681 Z" stroke="#0E172C" stroke-width="2" fill="none" stroke-miterlimit="5"></path></g></g><g clip-path="url(#i3)"><path d="M242.5,485 C376.429052,485 485,376.429052 485,242.5 C485,108.570948 376.429052,0 242.5,0 C108.570948,0 0,108.570948 0,242.5 C0,376.429052 108.570948,485 242.5,485 Z" stroke="#0E172C" stroke-width="2" fill="none" stroke-miterlimit="5"></path></g></g><g transform="translate(69.0 379.0)"><g transform="translate(10.0 11.0)"><g clip-path="url(#i4)"><polygon points="0,0 127,0 127,111 0,111 0,0" stroke="none" fill="#2956CA"></polygon></g></g><g transform="translate(38.0 39.0)"><g clip-path="url(#i5)"><polygon points="-3.55271368e-15,0 71,0 71,83 -3.55271368e-15,83 -3.55271368e-15,0" stroke="none" fill="#222021"></polygon></g></g><g transform="translate(16.0 44.0)"><g clip-path="url(#i6)"><polygon points="-7.10542736e-15,0 34,0 34,76 -7.10542736e-15,76 -7.10542736e-15,0" stroke="none" fill="#222021"></polygon></g></g><g transform="translate(97.0 44.0)"><g clip-path="url(#i7)"><polygon points="0,0 34,0 34,76 0,76 0,0" stroke="none" fill="#222021"></polygon></g></g><g transform="translate(49.0 20.0)"><g clip-path="url(#i8)"><polygon points="0,3.77475828e-15 49,3.77475828e-15 49,48 0,48 0,3.77475828e-15" stroke="none" fill="#151314"></polygon></g></g><g clip-path="url(#i9)"><g transform="translate(36.0 71.0)"><g clip-path="url(#i10)"><polygon points="0,0 74,0 74,48 0,48 0,0" stroke="none" fill="#6F6F6F"></polygon></g></g><g transform="translate(56.0 2.0)"><g clip-path="url(#i11)"><polygon points="-1.77635684e-15,-6.21724894e-15 34,-6.21724894e-15 34,45 -1.77635684e-15,45 -1.77635684e-15,-6.21724894e-15" stroke="none" fill="#FF875F"></polygon></g></g><g transform="translate(0.0 119.0)"><g clip-path="url(#i12)"><polygon points="0,0 146,0 146,5 0,5 0,0" stroke="none" fill="#A8A8A8"></polygon></g></g><g transform="translate(70.0 90.0)"><g clip-path="url(#i13)"><polygon points="0,0 8,0 8,8 0,8 0,0" stroke="none" fill="#B9B9B9"></polygon></g></g><g transform="translate(49.0 30.0)"><g clip-path="url(#i14)"><polygon points="0,0 25,0 25,38 0,38 0,0" stroke="none" fill="#393739"></polygon></g></g><g transform="translate(73.0 30.0)"><g clip-path="url(#i15)"><polygon points="0,0 25,0 25,38 0,38 0,0" stroke="none" fill="#393739"></polygon></g></g><g transform="translate(49.0 0.0)"><g clip-path="url(#i16)"><polygon points="1.77635684e-15,0 49,0 49,35 1.77635684e-15,35 1.77635684e-15,0" stroke="none" fill="#2B2B2B"></polygon></g></g></g></g><g transform="translate(402.0 14.0)"><g clip-path="url(#i17)"><polygon points="0,0 103,0 103,103 0,103 0,0" stroke="none" fill="#FFFFFF"></polygon><path d="M51.5,103 C79.9426646,103 103,79.9426646 103,51.5 C103,23.0573354 79.9426646,0 51.5,0 C23.0573354,0 0,23.0573354 0,51.5 C0,79.9426646 23.0573354,103 51.5,103 Z" stroke="#2957CB" stroke-width="2" fill="none" stroke-miterlimit="5"></path></g><g transform="translate(8.0 8.0)"><g clip-path="url(#i18)"><polygon points="0,0 86,0 86,86 0,86 0,0" stroke="none" fill="#FFFFFF"></polygon><path d="M43,86 C66.7482442,86 86,66.7482442 86,43 C86,19.2517558 66.7482442,0 43,0 C19.2517558,0 0,19.2517558 0,43 C0,66.7482442 19.2517558,86 43,86 Z" stroke="#2957CB" stroke-width="2" fill="none" stroke-miterlimit="5"></path></g></g><g transform="translate(18.0 18.0)"><g clip-path="url(#i19)"><polygon points="0,0 67,0 67,67 0,67 0,0" stroke="none" fill="#FFFFFF"></polygon><path d="M33.5,67 C52.0015391,67 67,52.0015391 67,33.5 C67,14.9984609 52.0015391,0 33.5,0 C14.9984609,0 0,14.9984609 0,33.5 C0,52.0015391 14.9984609,67 33.5,67 Z" stroke="#2957CB" stroke-width="2" fill="none" stroke-miterlimit="5"></path></g></g></g><g transform="translate(466.0 206.0)"><g clip-path="url(#i17)"><polygon points="0,0 103,0 103,103 0,103 0,0" stroke="none" fill="#FFFFFF"></polygon><path d="M51.5,103 C79.9426646,103 103,79.9426646 103,51.5 C103,23.0573354 79.9426646,0 51.5,0 C23.0573354,0 0,23.0573354 0,51.5 C0,79.9426646 23.0573354,103 51.5,103 Z" stroke="#2957CB" stroke-width="2" fill="none" stroke-miterlimit="5"></path></g><g transform="translate(8.0 8.0)"><g clip-path="url(#i18)"><polygon points="0,0 86,0 86,86 0,86 0,0" stroke="none" fill="#FFFFFF"></polygon><path d="M43,86 C66.7482442,86 86,66.7482442 86,43 C86,19.2517558 66.7482442,0 43,0 C19.2517558,0 0,19.2517558 0,43 C0,66.7482442 19.2517558,86 43,86 Z" stroke="#2957CB" stroke-width="2" fill="none" stroke-miterlimit="5"></path></g></g><g transform="translate(18.0 18.0)"><g clip-path="url(#i19)"><polygon points="0,0 67,0 67,67 0,67 0,0" stroke="none" fill="#FFFFFF"></polygon><path d="M33.5,67 C52.0015391,67 67,52.0015391 67,33.5 C67,14.9984609 52.0015391,0 33.5,0 C14.9984609,0 0,14.9984609 0,33.5 C0,52.0015391 14.9984609,67 33.5,67 Z" stroke="#2957CB" stroke-width="2" fill="none" stroke-miterlimit="5"></path></g></g></g><g transform="translate(346.0 394.0)"><g clip-path="url(#i17)"><polygon points="0,0 103,0 103,103 0,103 0,0" stroke="none" fill="#FFFFFF"></polygon><path d="M51.5,103 C79.9426646,103 103,79.9426646 103,51.5 C103,23.0573354 79.9426646,0 51.5,0 C23.0573354,0 0,23.0573354 0,51.5 C0,79.9426646 23.0573354,103 51.5,103 Z" stroke="#2957CB" stroke-width="2" fill="none" stroke-miterlimit="5"></path></g><g transform="translate(8.0 8.0)"><g clip-path="url(#i18)"><polygon points="0,0 86,0 86,86 0,86 0,0" stroke="none" fill="#FFFFFF"></polygon><path d="M43,86 C66.7482442,86 86,66.7482442 86,43 C86,19.2517558 66.7482442,0 43,0 C19.2517558,0 0,19.2517558 0,43 C0,66.7482442 19.2517558,86 43,86 Z" stroke="#2957CB" stroke-width="2" fill="none" stroke-miterlimit="5"></path></g></g><g transform="translate(18.0 18.0)"><g clip-path="url(#i19)"><polygon points="0,0 67,0 67,67 0,67 0,0" stroke="none" fill="#FFFFFF"></polygon><path d="M33.5,67 C52.0015391,67 67,52.0015391 67,33.5 C67,14.9984609 52.0015391,0 33.5,0 C14.9984609,0 0,14.9984609 0,33.5 C0,52.0015391 14.9984609,67 33.5,67 Z" stroke="#2957CB" stroke-width="2" fill="none" stroke-miterlimit="5"></path></g></g></g><g transform="translate(17.0 67.0)"><g clip-path="url(#i17)"><polygon points="0,0 103,0 103,103 0,103 0,0" stroke="none" fill="#FFFFFF"></polygon><path d="M51.5,103 C79.9426646,103 103,79.9426646 103,51.5 C103,23.0573354 79.9426646,0 51.5,0 C23.0573354,0 0,23.0573354 0,51.5 C0,79.9426646 23.0573354,103 51.5,103 Z" stroke="#2957CB" stroke-width="2" fill="none" stroke-miterlimit="5"></path></g><g transform="translate(8.0 8.0)"><g clip-path="url(#i18)"><polygon points="0,0 86,0 86,86 0,86 0,0" stroke="none" fill="#FFFFFF"></polygon><path d="M43,86 C66.7482442,86 86,66.7482442 86,43 C86,19.2517558 66.7482442,0 43,0 C19.2517558,0 0,19.2517558 0,43 C0,66.7482442 19.2517558,86 43,86 Z" stroke="#2957CB" stroke-width="2" fill="none" stroke-miterlimit="5"></path></g></g><g transform="translate(18.0 18.0)"><g clip-path="url(#i19)"><polygon points="0,0 67,0 67,67 0,67 0,0" stroke="none" fill="#FFFFFF"></polygon><path d="M33.5,67 C52.0015391,67 67,52.0015391 67,33.5 C67,14.9984609 52.0015391,0 33.5,0 C14.9984609,0 0,14.9984609 0,33.5 C0,52.0015391 14.9984609,67 33.5,67 Z" stroke="#2957CB" stroke-width="2" fill="none" stroke-miterlimit="5"></path></g></g></g><g transform="translate(449.0 311.0)"><g clip-path="url(#i20)"><polygon points="0,0 134,0 134,20 0,20 0,0" stroke="none" fill="#FFFFFF"></polygon></g></g><g transform="translate(330.0 499.0)"><g clip-path="url(#i20)"><polygon points="0,0 134,0 134,20 0,20 0,0" stroke="none" fill="#FFFFFF"></polygon></g></g><g transform="translate(380.0 119.0)"><g clip-path="url(#i21)"><polygon points="0,0 125,0 125,20 0,20 0,0" stroke="none" fill="#FFFFFF"></polygon></g></g><g transform="translate(0.0 174.0)"><g clip-path="url(#i22)"><polygon points="0,0 131,0 131,20 0,20 0,0" stroke="none" fill="#FFFFFF"></polygon></g></g><g transform="translate(105.18074917647027 510.2045454545457)"><g transform="translate(0.0 0.1590909090907644)"><g clip-path="url(#i23)"><polygon points="0,0 9.61363636,0 9.61363636,11.6363636 0,11.6363636 0,0" stroke="none" fill="#2957CB"></polygon></g></g><g transform="translate(13.004144213904512 0.1590909090907644)"><g clip-path="url(#i24)"><polygon points="0,0 10.8011364,0 10.8011364,11.6363636 0,11.6363636 0,0" stroke="none" fill="#2957CB"></polygon></g></g><g transform="translate(26.3548793368991 0.0)"><g clip-path="url(#i25)"><polygon points="0,0 10.2556818,0 10.2556818,11.9545455 0,11.9545455 0,0" stroke="none" fill="#2957CB"></polygon></g></g><g transform="translate(40.40447809625766 0.1590909090907644)"><g clip-path="url(#i26)"><polygon points="0,0 9.40340909,0 9.40340909,11.6363636 0,11.6363636 0,0" stroke="none" fill="#2957CB"></polygon></g></g><g transform="translate(53.09044049197837 0.1590909090907644)"><g clip-path="url(#i27)"><polygon points="0,0 7.61363636,0 7.61363636,11.6363636 0,11.6363636 0,0" stroke="none" fill="#2957CB"></polygon></g></g><g transform="translate(64.66844834224685 0.1590909090907644)"><g clip-path="url(#i28)"><polygon points="0,0 8.89204545,0 8.89204545,11.6363636 0,11.6363636 0,0" stroke="none" fill="#2957CB"></polygon></g></g></g><g transform="translate(142.0 130.0)"><g clip-path="url(#i29)"><g transform="translate(1.3320516369458346 1.0008510687932812)"><g clip-path="url(#i30)"><polygon points="0,0 37.4093491,0 37.4093491,47.1276005 0,47.1276005 0,0" stroke="none" fill="#FFFFFF"></polygon></g></g><g transform="translate(-0.00014557100212186924 0.0)"><g clip-path="url(#i31)"><polygon points="0.000145571003,0 40.0001456,0 40.0001456,49 0.000145571003,49 0.000145571003,0" stroke="none" fill="#2956CA"></polygon></g></g></g><g transform="translate(11.0 11.0)"><g clip-path="url(#i32)"><polygon points="0,0 18,0 18,23 0,23 0,0" stroke="none" fill="#2956CA"></polygon></g></g></g><g transform="translate(330.0 351.0)"><g clip-path="url(#i29)"><g transform="translate(1.3320516369458346 1.0008510687932812)"><g clip-path="url(#i30)"><polygon points="0,0 37.4093491,0 37.4093491,47.1276005 0,47.1276005 0,0" stroke="none" fill="#FFFFFF"></polygon></g></g><g transform="translate(-0.00014557100212186924 0.0)"><g clip-path="url(#i31)"><polygon points="0.000145571003,0 40.0001456,0 40.0001456,49 0.000145571003,49 0.000145571003,0" stroke="none" fill="#2956CA"></polygon></g></g></g><g transform="translate(11.0 11.0)"><g clip-path="url(#i32)"><polygon points="0,0 18,0 18,23 0,23 0,0" stroke="none" fill="#2956CA"></polygon></g></g></g><g transform="translate(413.0 230.0)"><g clip-path="url(#i29)"><g transform="translate(1.3320516369458346 1.0008510687932812)"><g clip-path="url(#i30)"><polygon points="0,0 37.4093491,0 37.4093491,47.1276005 0,47.1276005 0,0" stroke="none" fill="#FFFFFF"></polygon></g></g><g transform="translate(-0.00014557100212186924 0.0)"><g clip-path="url(#i31)"><polygon points="0.000145571003,0 40.0001456,0 40.0001456,49 0.000145571003,49 0.000145571003,0" stroke="none" fill="#2956CA"></polygon></g></g></g><g transform="translate(11.0 11.0)"><g clip-path="url(#i32)"><polygon points="0,0 18,0 18,23 0,23 0,0" stroke="none" fill="#2956CA"></polygon></g></g></g><g transform="translate(325.0 101.0)"><g clip-path="url(#i29)"><g transform="translate(1.3320516369458346 1.0008510687932812)"><g clip-path="url(#i30)"><polygon points="0,0 37.4093491,0 37.4093491,47.1276005 0,47.1276005 0,0" stroke="none" fill="#FFFFFF"></polygon></g></g><g transform="translate(-0.00014557100212186924 0.0)"><g clip-path="url(#i31)"><polygon points="0.000145571003,0 40.0001456,0 40.0001456,49 0.000145571003,49 0.000145571003,0" stroke="none" fill="#2956CA"></polygon></g></g></g><g transform="translate(11.0 11.0)"><g clip-path="url(#i32)"><polygon points="0,0 18,0 18,23 0,23 0,0" stroke="none" fill="#2956CA"></polygon></g></g></g><g transform="translate(212.0 173.0)"><g transform="translate(80.0 74.0)"><g clip-path="url(#i33)"><polygon points="0,0 54,0 54,35 0,35 0,0" stroke="none" fill="#2957CB"></polygon></g></g><g transform="translate(0.0 25.0)"><g clip-path="url(#i34)"><polygon points="0,0 130,0 130,84 0,84 0,0" stroke="none" fill="#2957CB"></polygon></g></g><g transform="translate(79.0 15.0)"><g clip-path="url(#i35)"><polygon points="0,0 26,0 26,26 0,26 0,0" stroke="none" fill="#2957CB"></polygon></g></g><g transform="translate(81.0 0.0)"><g clip-path="url(#i36)"><polygon points="0,0 39,0 39,39 0,39 0,0" stroke="none" fill="#2957CB"></polygon></g></g></g><g transform="translate(494.4996049537549 237.0)"><g transform="translate(16.50039504624419 15.0)"><g clip-path="url(#i37)"><path d="M5.5,11 C8.53756612,11 11,8.53756612 11,5.5 C11,2.46243388 8.53756612,0 5.5,0 C2.46243388,0 0,2.46243388 0,5.5 C0,8.53756612 2.46243388,11 5.5,11 Z" stroke="#2957CB" stroke-width="2" fill="none" stroke-miterlimit="5"></path></g></g><g transform="translate(13.50039504624419 0.0)"><g clip-path="url(#i38)"><path d="M8.5,0 C13.1944204,-8.62351033e-16 17,3.80557963 17,8.5 L17,33.5 C17,38.1944204 13.1944204,42 8.5,42 C3.80557963,42 5.74900688e-16,38.1944204 0,33.5 L0,8.5 C-5.74900688e-16,3.80557963 3.80557963,8.62351033e-16 8.5,0 Z" stroke="#2957CB" stroke-width="2" fill="none" stroke-miterlimit="5"></path></g></g><g transform="translate(35.61802003856967 0.2280914433885073) rotate(58.0)"><g clip-path="url(#i39)"><path d="M8.4,0 C13.0391919,-8.52205726e-16 16.8,3.7608081 16.8,8.4 L16.8,33.6 C16.8,38.2391919 13.0391919,42 8.4,42 C3.7608081,42 2.34449399e-15,38.2391919 0,33.6 L0,8.4 C-5.68137151e-16,3.7608081 3.7608081,8.52205726e-16 8.4,0 Z" stroke="#2957CB" stroke-width="2" fill="none" stroke-miterlimit="5"></path></g></g><g transform="translate(1.1368683772161603e-12 16.1552994588163) rotate(-58.0)"><g clip-path="url(#i40)"><path d="M8.4,0 C13.0391919,-8.52205726e-16 16.8,3.7608081 16.8,8.4 L16.8,33.6 C16.8,38.2391919 13.0391919,42 8.4,42 C3.7608081,42 1.1358536e-15,38.2391919 0,33.6 L0,8.4 C-5.68137151e-16,3.7608081 3.7608081,8.52205726e-16 8.4,0 Z" stroke="#2957CB" stroke-width="2" fill="none" stroke-miterlimit="5"></path></g></g><g transform="translate(3.5003950462441935 28.0)"><g clip-path="url(#i41)"><polygon points="0,0 7,0 7,7 0,7 0,0" stroke="none" fill="#FFFFFF"></polygon><path d="M3.5,7 C5.43299662,7 7,5.43299662 7,3.5 C7,1.56700338 5.43299662,0 3.5,0 C1.56700338,0 0,1.56700338 0,3.5 C0,5.43299662 1.56700338,7 3.5,7 Z" stroke="#2957CB" stroke-width="2" fill="none" stroke-miterlimit="5"></path></g></g><g transform="translate(3.5003950462441935 5.0)"><g clip-path="url(#i41)"><polygon points="0,0 7,0 7,7 0,7 0,0" stroke="none" fill="#FFFFFF"></polygon><path d="M3.5,7 C5.43299662,7 7,5.43299662 7,3.5 C7,1.56700338 5.43299662,0 3.5,0 C1.56700338,0 0,1.56700338 0,3.5 C0,5.43299662 1.56700338,7 3.5,7 Z" stroke="#2957CB" stroke-width="2" fill="none" stroke-miterlimit="5"></path></g></g><g transform="translate(36.50039504624419 5.0)"><g clip-path="url(#i41)"><polygon points="0,0 7,0 7,7 0,7 0,0" stroke="none" fill="#FFFFFF"></polygon><path d="M3.5,7 C5.43299662,7 7,5.43299662 7,3.5 C7,1.56700338 5.43299662,0 3.5,0 C1.56700338,0 0,1.56700338 0,3.5 C0,5.43299662 1.56700338,7 3.5,7 Z" stroke="#2957CB" stroke-width="2" fill="none" stroke-miterlimit="5"></path></g></g></g><g transform="translate(431.4996049537549 44.0)"><g transform="translate(16.50039504624419 15.0)"><g clip-path="url(#i37)"><path d="M5.5,11 C8.53756612,11 11,8.53756612 11,5.5 C11,2.46243388 8.53756612,0 5.5,0 C2.46243388,0 0,2.46243388 0,5.5 C0,8.53756612 2.46243388,11 5.5,11 Z" stroke="#2957CB" stroke-width="2" fill="none" stroke-miterlimit="5"></path></g></g><g transform="translate(13.50039504624419 0.0)"><g clip-path="url(#i38)"><path d="M8.5,0 C13.1944204,-8.62351033e-16 17,3.80557963 17,8.5 L17,33.5 C17,38.1944204 13.1944204,42 8.5,42 C3.80557963,42 5.74900688e-16,38.1944204 0,33.5 L0,8.5 C-5.74900688e-16,3.80557963 3.80557963,8.62351033e-16 8.5,0 Z" stroke="#2957CB" stroke-width="2" fill="none" stroke-miterlimit="5"></path></g></g><g transform="translate(35.61802003856967 0.2280914433885073) rotate(58.0)"><g clip-path="url(#i39)"><path d="M8.4,0 C13.0391919,-8.52205726e-16 16.8,3.7608081 16.8,8.4 L16.8,33.6 C16.8,38.2391919 13.0391919,42 8.4,42 C3.7608081,42 2.34449399e-15,38.2391919 0,33.6 L0,8.4 C-5.68137151e-16,3.7608081 3.7608081,8.52205726e-16 8.4,0 Z" stroke="#2957CB" stroke-width="2" fill="none" stroke-miterlimit="5"></path></g></g><g transform="translate(1.1368683772161603e-12 16.1552994588163) rotate(-58.0)"><g clip-path="url(#i40)"><path d="M8.4,0 C13.0391919,-8.52205726e-16 16.8,3.7608081 16.8,8.4 L16.8,33.6 C16.8,38.2391919 13.0391919,42 8.4,42 C3.7608081,42 1.1358536e-15,38.2391919 0,33.6 L0,8.4 C-5.68137151e-16,3.7608081 3.7608081,8.52205726e-16 8.4,0 Z" stroke="#2957CB" stroke-width="2" fill="none" stroke-miterlimit="5"></path></g></g><g transform="translate(3.5003950462441935 28.0)"><g clip-path="url(#i41)"><polygon points="0,0 7,0 7,7 0,7 0,0" stroke="none" fill="#FFFFFF"></polygon><path d="M3.5,7 C5.43299662,7 7,5.43299662 7,3.5 C7,1.56700338 5.43299662,0 3.5,0 C1.56700338,0 0,1.56700338 0,3.5 C0,5.43299662 1.56700338,7 3.5,7 Z" stroke="#2957CB" stroke-width="2" fill="none" stroke-miterlimit="5"></path></g></g><g transform="translate(3.5003950462441935 5.0)"><g clip-path="url(#i41)"><polygon points="0,0 7,0 7,7 0,7 0,0" stroke="none" fill="#FFFFFF"></polygon><path d="M3.5,7 C5.43299662,7 7,5.43299662 7,3.5 C7,1.56700338 5.43299662,0 3.5,0 C1.56700338,0 0,1.56700338 0,3.5 C0,5.43299662 1.56700338,7 3.5,7 Z" stroke="#2957CB" stroke-width="2" fill="none" stroke-miterlimit="5"></path></g></g><g transform="translate(36.50039504624419 5.0)"><g clip-path="url(#i41)"><polygon points="0,0 7,0 7,7 0,7 0,0" stroke="none" fill="#FFFFFF"></polygon><path d="M3.5,7 C5.43299662,7 7,5.43299662 7,3.5 C7,1.56700338 5.43299662,0 3.5,0 C1.56700338,0 0,1.56700338 0,3.5 C0,5.43299662 1.56700338,7 3.5,7 Z" stroke="#2957CB" stroke-width="2" fill="none" stroke-miterlimit="5"></path></g></g></g><g transform="translate(374.4996049537549 427.0)"><g transform="translate(16.50039504624419 15.0)"><g clip-path="url(#i37)"><path d="M5.5,11 C8.53756612,11 11,8.53756612 11,5.5 C11,2.46243388 8.53756612,0 5.5,0 C2.46243388,0 0,2.46243388 0,5.5 C0,8.53756612 2.46243388,11 5.5,11 Z" stroke="#2957CB" stroke-width="2" fill="none" stroke-miterlimit="5"></path></g></g><g transform="translate(13.50039504624419 0.0)"><g clip-path="url(#i38)"><path d="M8.5,0 C13.1944204,-8.62351033e-16 17,3.80557963 17,8.5 L17,33.5 C17,38.1944204 13.1944204,42 8.5,42 C3.80557963,42 5.74900688e-16,38.1944204 0,33.5 L0,8.5 C-5.74900688e-16,3.80557963 3.80557963,8.62351033e-16 8.5,0 Z" stroke="#2957CB" stroke-width="2" fill="none" stroke-miterlimit="5"></path></g></g><g transform="translate(35.61802003856967 0.2280914433885073) rotate(58.0)"><g clip-path="url(#i39)"><path d="M8.4,0 C13.0391919,-8.52205726e-16 16.8,3.7608081 16.8,8.4 L16.8,33.6 C16.8,38.2391919 13.0391919,42 8.4,42 C3.7608081,42 2.34449399e-15,38.2391919 0,33.6 L0,8.4 C-5.68137151e-16,3.7608081 3.7608081,8.52205726e-16 8.4,0 Z" stroke="#2957CB" stroke-width="2" fill="none" stroke-miterlimit="5"></path></g></g><g transform="translate(1.1368683772161603e-12 16.1552994588163) rotate(-58.0)"><g clip-path="url(#i40)"><path d="M8.4,0 C13.0391919,-8.52205726e-16 16.8,3.7608081 16.8,8.4 L16.8,33.6 C16.8,38.2391919 13.0391919,42 8.4,42 C3.7608081,42 1.1358536e-15,38.2391919 0,33.6 L0,8.4 C-5.68137151e-16,3.7608081 3.7608081,8.52205726e-16 8.4,0 Z" stroke="#2957CB" stroke-width="2" fill="none" stroke-miterlimit="5"></path></g></g><g transform="translate(3.5003950462441935 28.0)"><g clip-path="url(#i41)"><polygon points="0,0 7,0 7,7 0,7 0,0" stroke="none" fill="#FFFFFF"></polygon><path d="M3.5,7 C5.43299662,7 7,5.43299662 7,3.5 C7,1.56700338 5.43299662,0 3.5,0 C1.56700338,0 0,1.56700338 0,3.5 C0,5.43299662 1.56700338,7 3.5,7 Z" stroke="#2957CB" stroke-width="2" fill="none" stroke-miterlimit="5"></path></g></g><g transform="translate(3.5003950462441935 5.0)"><g clip-path="url(#i41)"><polygon points="0,0 7,0 7,7 0,7 0,0" stroke="none" fill="#FFFFFF"></polygon><path d="M3.5,7 C5.43299662,7 7,5.43299662 7,3.5 C7,1.56700338 5.43299662,0 3.5,0 C1.56700338,0 0,1.56700338 0,3.5 C0,5.43299662 1.56700338,7 3.5,7 Z" stroke="#2957CB" stroke-width="2" fill="none" stroke-miterlimit="5"></path></g></g><g transform="translate(36.50039504624419 5.0)"><g clip-path="url(#i41)"><polygon points="0,0 7,0 7,7 0,7 0,0" stroke="none" fill="#FFFFFF"></polygon><path d="M3.5,7 C5.43299662,7 7,5.43299662 7,3.5 C7,1.56700338 5.43299662,0 3.5,0 C1.56700338,0 0,1.56700338 0,3.5 C0,5.43299662 1.56700338,7 3.5,7 Z" stroke="#2957CB" stroke-width="2" fill="none" stroke-miterlimit="5"></path></g></g></g><g transform="translate(45.4996049537549 98.0)"><g transform="translate(16.50039504624419 15.0)"><g clip-path="url(#i37)"><path d="M5.5,11 C8.53756612,11 11,8.53756612 11,5.5 C11,2.46243388 8.53756612,0 5.5,0 C2.46243388,0 0,2.46243388 0,5.5 C0,8.53756612 2.46243388,11 5.5,11 Z" stroke="#2957CB" stroke-width="2" fill="none" stroke-miterlimit="5"></path></g></g><g transform="translate(13.50039504624419 0.0)"><g clip-path="url(#i38)"><path d="M8.5,0 C13.1944204,-8.62351033e-16 17,3.80557963 17,8.5 L17,33.5 C17,38.1944204 13.1944204,42 8.5,42 C3.80557963,42 5.74900688e-16,38.1944204 0,33.5 L0,8.5 C-5.74900688e-16,3.80557963 3.80557963,8.62351033e-16 8.5,0 Z" stroke="#2957CB" stroke-width="2" fill="none" stroke-miterlimit="5"></path></g></g><g transform="translate(35.61802003856967 0.2280914433885073) rotate(58.0)"><g clip-path="url(#i39)"><path d="M8.4,0 C13.0391919,-8.52205726e-16 16.8,3.7608081 16.8,8.4 L16.8,33.6 C16.8,38.2391919 13.0391919,42 8.4,42 C3.7608081,42 2.34449399e-15,38.2391919 0,33.6 L0,8.4 C-5.68137151e-16,3.7608081 3.7608081,8.52205726e-16 8.4,0 Z" stroke="#2957CB" stroke-width="2" fill="none" stroke-miterlimit="5"></path></g></g><g transform="translate(1.1368683772161603e-12 16.1552994588163) rotate(-58.0)"><g clip-path="url(#i40)"><path d="M8.4,0 C13.0391919,-8.52205726e-16 16.8,3.7608081 16.8,8.4 L16.8,33.6 C16.8,38.2391919 13.0391919,42 8.4,42 C3.7608081,42 1.1358536e-15,38.2391919 0,33.6 L0,8.4 C-5.68137151e-16,3.7608081 3.7608081,8.52205726e-16 8.4,0 Z" stroke="#2957CB" stroke-width="2" fill="none" stroke-miterlimit="5"></path></g></g><g transform="translate(3.5003950462441935 28.0)"><g clip-path="url(#i41)"><polygon points="0,0 7,0 7,7 0,7 0,0" stroke="none" fill="#FFFFFF"></polygon><path d="M3.5,7 C5.43299662,7 7,5.43299662 7,3.5 C7,1.56700338 5.43299662,0 3.5,0 C1.56700338,0 0,1.56700338 0,3.5 C0,5.43299662 1.56700338,7 3.5,7 Z" stroke="#2957CB" stroke-width="2" fill="none" stroke-miterlimit="5"></path></g></g><g transform="translate(3.5003950462441935 5.0)"><g clip-path="url(#i41)"><polygon points="0,0 7,0 7,7 0,7 0,0" stroke="none" fill="#FFFFFF"></polygon><path d="M3.5,7 C5.43299662,7 7,5.43299662 7,3.5 C7,1.56700338 5.43299662,0 3.5,0 C1.56700338,0 0,1.56700338 0,3.5 C0,5.43299662 1.56700338,7 3.5,7 Z" stroke="#2957CB" stroke-width="2" fill="none" stroke-miterlimit="5"></path></g></g><g transform="translate(36.50039504624419 5.0)"><g clip-path="url(#i41)"><polygon points="0,0 7,0 7,7 0,7 0,0" stroke="none" fill="#FFFFFF"></polygon><path d="M3.5,7 C5.43299662,7 7,5.43299662 7,3.5 C7,1.56700338 5.43299662,0 3.5,0 C1.56700338,0 0,1.56700338 0,3.5 C0,5.43299662 1.56700338,7 3.5,7 Z" stroke="#2957CB" stroke-width="2" fill="none" stroke-miterlimit="5"></path></g></g></g><g transform="translate(349.0 253.0)"><polygon points="48.5,-6.5 62.5,0.5 48.5,7.5 48.5,1.5 -0.5,1.5 -0.5,-0.5 48.5,-0.5 48.5,-6.5 48.5,-6.5" stroke="none" fill="#0DA224"></polygon></g><g transform="translate(407.0 254.0) rotate(-180.0)"><polygon points="48.5,-6.5 62.5,0.5 48.5,7.5 48.5,1.5 -0.5,1.5 -0.5,-0.5 48.5,-0.5 48.5,-6.5 48.5,-6.5" stroke="none" fill="#0DA224"></polygon></g><g transform="translate(190.24798241494443 157.3380639462307) rotate(37.0)"><g transform="translate(60.0 0.0) scale(-1.0 1.0)"><polygon points="45.5,-6.5 59.5,0.5 45.5,7.5 45.5,1.5 -0.5,1.5 -0.5,-0.5 45.5,-0.5 45.5,-6.5 45.5,-6.5" stroke="none" fill="#0DA224"></polygon></g><g transform="translate(9.0 1.0) scale(1.0 -1.0)"><polygon points="45.5,-6.5 59.5,0.5 45.5,7.5 45.5,1.5 -0.5,1.5 -0.5,-0.5 45.5,-0.5 45.5,-6.5 45.5,-6.5" stroke="none" fill="#0DA224"></polygon></g></g><g transform="translate(83.60461763750939 202.98205976397685) rotate(28.0)"><g transform="translate(117.99999999983174 69.00000000007685) scale(-1.0 1.0)"><polygon points="54.4374853,-0.912831171 55.9128312,0.437485346 55.2376729,1.17515826 10.689,49.847 15.115926,53.898687 0.5,59.5 4.78850524,44.4464714 9.214,48.497 53.7623271,-0.175158259 54.4374853,-0.912831171 54.4374853,-0.912831171" stroke="none" fill="#DC2121"></polygon></g><g transform=""><g transform="translate(0.0 124.0) scale(1.0 -1.0)"><polygon points="112.433039,-0.912627412 113.912627,0.433038855 113.239794,1.17283313 10.987,113.602 15.4252197,117.639545 0.826995899,123.286833 5.06809982,108.219881 9.507,112.256 111.760206,-0.172833133 112.433039,-0.912627412 112.433039,-0.912627412" stroke="none" fill="#DC2121"></polygon></g><g transform="translate(47.630827715896885 54.31449310488824)"><g clip-path="url(#i42)"><polygon points="0,4.54747351e-13 17,4.54747351e-13 17,17 0,17 0,4.54747351e-13" stroke="none" fill="#FFFFFF"></polygon><path d="M8.5,17 C13.1944204,17 17,13.1944204 17,8.5 C17,3.80557963 13.1944204,0 8.5,0 C3.80557963,0 0,3.80557963 0,8.5 C0,13.1944204 3.80557963,17 8.5,17 Z" stroke="#DC2121" stroke-width="4" fill="none" stroke-miterlimit="5"></path></g><g transform="translate(4.0 3.0)"><path d="M9.5,0.5 L0.5,11.5" stroke="#DC2121" stroke-width="2" fill="none" stroke-linecap="square" stroke-miterlimit="10"></path></g></g></g></g><g transform="translate(214.5854611398322 278.38470528148764) rotate(33.0)"><g transform="translate(4.031057339549989 97.0) scale(1.0 -1.0)"><polygon points="1.38456272,-0.603425939 1.49399433,0.390568388 10.535,82.51 16.4987945,81.8541065 11.0728768,96.5360484 2.58287396,83.3861491 8.547,82.729 -0.493994327,0.609431612 -0.603425939,-0.384562715 1.38456272,-0.603425939 1.38456272,-0.603425939" stroke="none" fill="#DC2121"></polygon></g><g transform="translate(0.0 33.00000000001182)"><g transform="translate(12.031057339545441 0.0) scale(-1.0 1.0)"><polygon points="1.39854119,-0.592073136 1.49530716,0.403234026 7.14,58.469 13.1124265,57.8883379 7.5,72.5 -0.821873769,59.2430616 5.149,58.662 -0.495307162,0.596765974 -0.592073136,-0.398541188 1.39854119,-0.592073136 1.39854119,-0.592073136" stroke="none" fill="#DC2121"></polygon></g><g transform="translate(0.0 12.639491643399651)"><g clip-path="url(#i42)"><polygon points="-9.09494702e-13,4.54747351e-13 17,4.54747351e-13 17,17 -9.09494702e-13,17 -9.09494702e-13,4.54747351e-13" stroke="none" fill="#FFFFFF"></polygon><path d="M8.5,17 C13.1944204,17 17,13.1944204 17,8.5 C17,3.80557963 13.1944204,0 8.5,0 C3.80557963,0 0,3.80557963 0,8.5 C0,13.1944204 3.80557963,17 8.5,17 Z" stroke="#DC2121" stroke-width="4" fill="none" stroke-miterlimit="5"></path></g></g><g transform="translate(3.9999999999990905 15.639491643400106)"><path d="M9.5,0.5 L0.5,11.5" stroke="#DC2121" stroke-width="2" fill="none" stroke-linecap="square" stroke-miterlimit="10"></path></g></g></g><g transform="translate(201.73896675213783 413.5322925330673) rotate(-25.999999999999996)"><g transform="translate(108.0 4.0) scale(-1.0 1.0)"><polygon points="98.3696591,-0.615209882 98.6152099,1.36965908 97.6227754,1.49243448 14.516,11.773 15.2535105,17.7281858 0.5,12.5 13.534655,3.83410303 14.271,9.789 97.3772246,-0.492434482 98.3696591,-0.615209882 98.3696591,-0.615209882" stroke="none" fill="#DC2121"></polygon></g><g transform="translate(0.0 16.0) scale(1.0 -1.0)"><polygon points="102.370273,-0.614731185 102.614731,1.37027259 101.622229,1.49250189 14.017,12.281 14.7506315,18.2363031 0,13 13.0394214,4.34127663 13.772,10.296 101.377771,-0.492501889 102.370273,-0.614731185 102.370273,-0.614731185" stroke="none" fill="#DC2121"></polygon></g><g transform="translate(45.0 0.0)"><g clip-path="url(#i42)"><polygon points="0,9.09494702e-13 17,9.09494702e-13 17,17 0,17 0,9.09494702e-13" stroke="none" fill="#FFFFFF"></polygon><path d="M8.5,17 C13.1944204,17 17,13.1944204 17,8.5 C17,3.80557963 13.1944204,0 8.5,0 C3.80557963,0 0,3.80557963 0,8.5 C0,13.1944204 3.80557963,17 8.5,17 Z" stroke="#DC2121" stroke-width="4" fill="none" stroke-miterlimit="5"></path></g><g transform="translate(4.0 3.0)"><path d="M9.5,0.5 L0.5,11.5" stroke="#DC2121" stroke-width="2" fill="none" stroke-linecap="square" stroke-miterlimit="10"></path></g></g></g><g transform="translate(317.0 144.0)"><polygon points="15.5,0.5 14.016003,16.0819688 8.928,12.901 1.3479983,25.0299989 0.817999364,25.8779972 -0.877997244,24.8179994 -0.347998304,23.9700011 7.232,11.841 2.14402671,8.66198368 15.5,0.5 15.5,0.5" stroke="none" fill="#0DA224"></polygon></g><g transform="translate(327.0 179.0) rotate(-180.0)"><polygon points="15.5,0.5 14.016003,16.0819688 8.928,12.901 1.3479983,25.0299989 0.817999364,25.8779972 -0.877997244,24.8179994 -0.347998304,23.9700011 7.232,11.841 2.14402671,8.66198368 15.5,0.5 15.5,0.5" stroke="none" fill="#0DA224"></polygon></g><g transform="translate(314.25701764120424 290.63663568695904) rotate(13.000000000000002)"><g transform="translate(4.999999999998181 8.000000000001592)"><polygon points="0.676265537,-0.903185825 1.28972568,-0.113460144 22.34,26.985 27.0782341,23.3042753 30.1385963,38.6546558 16.0220745,31.8927173 20.76,28.212 -0.289725681,1.11346014 -0.903185825,0.323734463 0.676265537,-0.903185825 0.676265537,-0.903185825" stroke="none" fill="#0DA224"></polygon></g><g transform="translate(20.0 27.000000000000227) rotate(-180.0)"><polygon points="0.717374533,-0.897407712 1.30739112,-0.0900165893 12.047,14.606 16.8915056,11.0664082 19.5,26.5 5.58802989,19.3266404 10.432,15.786 -0.307391122,1.09001659 -0.897407712,0.282625467 0.717374533,-0.897407712 0.717374533,-0.897407712" stroke="none" fill="#0DA224"></polygon></g></g><g transform="translate(8.441344465240036 177.94176136363637)"><g transform="translate(0.0 0.14914772727274794)"><g clip-path="url(#i43)"><polygon points="0,0 8.99147727,0 8.99147727,10.9090909 0,10.9090909 0,0" stroke="none" fill="#2957CB"></polygon></g></g><g transform="translate(11.31780565508052 0.14914772727274794)"><g clip-path="url(#i44)"><polygon points="0,0 10.1260653,0 10.1260653,10.9090909 0,10.9090909 0,0" stroke="none" fill="#2957CB"></polygon></g></g><g transform="translate(22.82204596925112 0.14914772727274794)"><g clip-path="url(#i45)"><polygon points="0,0 8.70383523,0 8.70383523,10.9090909 0,10.9090909 0,0" stroke="none" fill="#2957CB"></polygon></g></g><g transform="translate(32.90938287433164 0.14914772727274794)"><g clip-path="url(#i46)"><polygon points="0,0 10.1260653,0 10.1260653,10.9090909 0,10.9090909 0,0" stroke="none" fill="#2957CB"></polygon></g></g><g transform="translate(51.40081804812871 0.0)"><g clip-path="url(#i47)"><polygon points="0,0 9.6147017,0 9.6147017,11.2073864 0,11.2073864 0,0" stroke="none" fill="#2957CB"></polygon></g></g><g transform="translate(64.57231688502725 0.14914772727274794)"><g clip-path="url(#i48)"><polygon points="0,0 7.13778409,0 7.13778409,10.9090909 0,10.9090909 0,0" stroke="none" fill="#2957CB"></polygon></g></g><g transform="translate(75.42669924465372 0.14914772727274794)"><g clip-path="url(#i49)"><polygon points="0,0 8.96484375,0 8.96484375,10.9090909 0,10.9090909 0,0" stroke="none" fill="#2957CB"></polygon></g></g><g transform="translate(87.79919239973242 0.14914772727274794)"><g clip-path="url(#i50)"><polygon points="0,0 8.70383523,0 8.70383523,10.9090909 0,10.9090909 0,0" stroke="none" fill="#2957CB"></polygon></g></g><g transform="translate(99.91600373663096 0.14914772727274794)"><g clip-path="url(#i51)"><polygon points="0,0 7.13778409,0 7.13778409,10.9090909 0,10.9090909 0,0" stroke="none" fill="#2957CB"></polygon></g></g><g transform="translate(110.77038609625743 0.14914772727274794)"><g clip-path="url(#i52)"><polygon points="0,0 8.33629261,0 8.33629261,10.9090909 0,10.9090909 0,0" stroke="none" fill="#2957CB"></polygon></g></g></g><g transform="translate(386.4532828709889 124.94176136363639)"><g transform="translate(0.0 0.14914772727274794)"><g clip-path="url(#i53)"><polygon points="0,0 8.13920455,0 8.13920455,10.9090909 0,10.9090909 0,0" stroke="none" fill="#2957CB"></polygon></g></g><g transform="translate(11.600120995990437 0.14914772727274794)"><g clip-path="url(#i54)"><polygon points="0,0 8.33629261,0 8.33629261,10.9090909 0,10.9090909 0,0" stroke="none" fill="#2957CB"></polygon></g></g><g transform="translate(22.390582901069138 0.14914772727274794)"><g clip-path="url(#i55)"><polygon points="0,0 10.1260653,0 10.1260653,10.9090909 0,10.9090909 0,0" stroke="none" fill="#2957CB"></polygon></g></g><g transform="translate(35.695249351605526 0.14914772727274794)"><g clip-path="url(#i56)"><polygon points="0,0 8.96484375,0 8.96484375,10.9090909 0,10.9090909 0,0" stroke="none" fill="#2957CB"></polygon></g></g><g transform="translate(48.27015727941216 0.0)"><g clip-path="url(#i57)"><polygon points="0,0 9.6147017,0 9.6147017,11.2073864 0,11.2073864 0,0" stroke="none" fill="#2957CB"></polygon></g></g><g transform="translate(61.441656116310696 0.14914772727274794)"><g clip-path="url(#i58)"><polygon points="0,0 9.01278409,0 9.01278409,10.9090909 0,10.9090909 0,0" stroke="none" fill="#2957CB"></polygon></g></g><g transform="translate(79.52826174465372 0.0)"><g clip-path="url(#i59)"><polygon points="0,0 10.024858,0 10.024858,11.2073864 0,11.2073864 0,0" stroke="none" fill="#2957CB"></polygon></g></g><g transform="translate(93.16851058155044 0.14914772727274794)"><g clip-path="url(#i60)"><polygon points="0,0 6.98863636,0 6.98863636,10.9090909 0,10.9090909 0,0" stroke="none" fill="#2957CB"></polygon></g></g><g transform="translate(103.69263725935889 0.14914772727274794)"><g clip-path="url(#i61)"><polygon points="0,0 6.98863636,0 6.98863636,10.9090909 0,10.9090909 0,0" stroke="none" fill="#2957CB"></polygon></g></g><g transform="translate(114.21676393716552 0.14914772727274794)"><g clip-path="url(#i62)"><polygon points="0,0 1.97620739,0 1.97620739,10.9090909 0,10.9090909 0,0" stroke="none" fill="#2957CB"></polygon></g></g><g transform="translate(119.80303550133794 0.0)"><g clip-path="url(#i63)"><polygon points="0,0 9.6147017,0 9.6147017,11.2073864 0,11.2073864 0,0" stroke="none" fill="#2957CB"></polygon></g></g><g transform="translate(132.97453433823648 0.14914772727274794)"><g clip-path="url(#i64)"><polygon points="0,0 7.13778409,0 7.13778409,10.9090909 0,10.9090909 0,0" stroke="none" fill="#2957CB"></polygon></g></g><g transform="translate(149.03166553475967 0.14914772727274794)"><g clip-path="url(#i65)"><polygon points="0,0 4.59161932,0 4.59161932,10.9090909 0,10.9090909 0,0" stroke="none" fill="#2957CB"></polygon></g></g></g><g transform="translate(438.3985953709889 316.9417613636364)"><g transform="translate(0.0 0.14914772727263426)"><g clip-path="url(#i66)"><polygon points="0,0 8.13920455,0 8.13920455,10.9090909 0,10.9090909 0,0" stroke="none" fill="#2957CB"></polygon></g></g><g transform="translate(11.600120995990437 0.14914772727263426)"><g clip-path="url(#i67)"><polygon points="0,0 8.33629261,0 8.33629261,10.9090909 0,10.9090909 0,0" stroke="none" fill="#2957CB"></polygon></g></g><g transform="translate(22.390582901069138 0.14914772727263426)"><g clip-path="url(#i68)"><polygon points="0,0 10.1260653,0 10.1260653,10.9090909 0,10.9090909 0,0" stroke="none" fill="#2957CB"></polygon></g></g><g transform="translate(35.695249351605526 0.14914772727263426)"><g clip-path="url(#i69)"><polygon points="0,0 8.96484375,0 8.96484375,10.9090909 0,10.9090909 0,0" stroke="none" fill="#2957CB"></polygon></g></g><g transform="translate(48.27015727941216 0.0)"><g clip-path="url(#i70)"><polygon points="0,0 9.6147017,0 9.6147017,11.2073864 0,11.2073864 0,0" stroke="none" fill="#2957CB"></polygon></g></g><g transform="translate(61.441656116310696 0.14914772727263426)"><g clip-path="url(#i71)"><polygon points="0,0 9.01278409,0 9.01278409,10.9090909 0,10.9090909 0,0" stroke="none" fill="#2957CB"></polygon></g></g><g transform="translate(79.52826174465372 0.0)"><g clip-path="url(#i72)"><polygon points="0,0 10.024858,0 10.024858,11.2073864 0,11.2073864 0,0" stroke="none" fill="#2957CB"></polygon></g></g><g transform="translate(93.16851058155044 0.14914772727263426)"><g clip-path="url(#i73)"><polygon points="0,0 6.98863636,0 6.98863636,10.9090909 0,10.9090909 0,0" stroke="none" fill="#2957CB"></polygon></g></g><g transform="translate(103.69263725935889 0.14914772727263426)"><g clip-path="url(#i74)"><polygon points="0,0 6.98863636,0 6.98863636,10.9090909 0,10.9090909 0,0" stroke="none" fill="#2957CB"></polygon></g></g><g transform="translate(114.21676393716552 0.14914772727263426)"><g clip-path="url(#i75)"><polygon points="0,0 1.97620739,0 1.97620739,10.9090909 0,10.9090909 0,0" stroke="none" fill="#2957CB"></polygon></g></g><g transform="translate(119.80303550133794 0.0)"><g clip-path="url(#i76)"><polygon points="0,0 9.6147017,0 9.6147017,11.2073864 0,11.2073864 0,0" stroke="none" fill="#2957CB"></polygon></g></g><g transform="translate(132.97453433823648 0.14914772727263426)"><g clip-path="url(#i77)"><polygon points="0,0 7.13778409,0 7.13778409,10.9090909 0,10.9090909 0,0" stroke="none" fill="#2957CB"></polygon></g></g><g transform="translate(149.12221951203173 0.0)"><g clip-path="url(#i78)"><polygon points="0,0 7.54261364,0 7.54261364,11.0582386 0,11.0582386 0,0" stroke="none" fill="#2957CB"></polygon></g></g></g><g transform="translate(319.17221042780693 504.94176136363626)"><g transform="translate(0.0 0.14914772727274794)"><g clip-path="url(#i79)"><polygon points="0,0 8.13920455,0 8.13920455,10.9090909 0,10.9090909 0,0" stroke="none" fill="#2957CB"></polygon></g></g><g transform="translate(11.600120995990437 0.14914772727274794)"><g clip-path="url(#i80)"><polygon points="0,0 8.33629261,0 8.33629261,10.9090909 0,10.9090909 0,0" stroke="none" fill="#2957CB"></polygon></g></g><g transform="translate(22.390582901070957 0.14914772727274794)"><g clip-path="url(#i81)"><polygon points="0,0 10.1260653,0 10.1260653,10.9090909 0,10.9090909 0,0" stroke="none" fill="#2957CB"></polygon></g></g><g transform="translate(35.695249351605526 0.14914772727274794)"><g clip-path="url(#i82)"><polygon points="0,0 8.96484375,0 8.96484375,10.9090909 0,10.9090909 0,0" stroke="none" fill="#2957CB"></polygon></g></g><g transform="translate(48.27015727941216 2.2737367544323206e-13)"><g clip-path="url(#i83)"><polygon points="0,0 9.6147017,0 9.6147017,11.2073864 0,11.2073864 0,0" stroke="none" fill="#2957CB"></polygon></g></g><g transform="translate(61.441656116310696 0.14914772727274794)"><g clip-path="url(#i84)"><polygon points="0,0 9.01278409,0 9.01278409,10.9090909 0,10.9090909 0,0" stroke="none" fill="#2957CB"></polygon></g></g><g transform="translate(79.52826174465372 2.2737367544323206e-13)"><g clip-path="url(#i85)"><polygon points="0,0 10.024858,0 10.024858,11.2073864 0,11.2073864 0,0" stroke="none" fill="#2957CB"></polygon></g></g><g transform="translate(93.16851058155044 0.14914772727274794)"><g clip-path="url(#i86)"><polygon points="0,0 6.98863636,0 6.98863636,10.9090909 0,10.9090909 0,0" stroke="none" fill="#2957CB"></polygon></g></g><g transform="translate(103.69263725935889 0.14914772727274794)"><g clip-path="url(#i87)"><polygon points="0,0 6.98863636,0 6.98863636,10.9090909 0,10.9090909 0,0" stroke="none" fill="#2957CB"></polygon></g></g><g transform="translate(114.21676393716552 0.14914772727274794)"><g clip-path="url(#i88)"><polygon points="0,0 1.97620739,0 1.97620739,10.9090909 0,10.9090909 0,0" stroke="none" fill="#2957CB"></polygon></g></g><g transform="translate(119.80303550133794 2.2737367544323206e-13)"><g clip-path="url(#i89)"><polygon points="0,0 9.6147017,0 9.6147017,11.2073864 0,11.2073864 0,0" stroke="none" fill="#2957CB"></polygon></g></g><g transform="translate(132.97453433823648 0.14914772727274794)"><g clip-path="url(#i90)"><polygon points="0,0 7.13778409,0 7.13778409,10.9090909 0,10.9090909 0,0" stroke="none" fill="#2957CB"></polygon></g></g><g transform="translate(149.10091269385157 2.2737367544323206e-13)"><g clip-path="url(#i91)"><polygon points="0,0 8.02743404,0 8.02743404,11.2073864 0,11.2073864 0,0" stroke="none" fill="#2957CB"></polygon></g></g></g></svg>